<?xml version="1.0" encoding="UTF-8" standalone="no"?>
<!DOCTYPE svg PUBLIC "-//W3C//DTD SVG 1.1//EN"
 "http://www.w3.org/Graphics/SVG/1.1/DTD/svg11.dtd">
<!-- Generated by graphviz version 2.36.0 (20140111.2315)
 -->
<!-- Title: G Pages: 1 -->
<svg width="516pt" height="260pt"
 viewBox="0.00 0.00 516.00 260.00" xmlns="http://www.w3.org/2000/svg" xmlns:xlink="http://www.w3.org/1999/xlink">
<g id="graph0" class="graph" transform="scale(1 1) rotate(0) translate(4 256)">
<title>G</title>
<!-- /nix/store/hl67c5fpac7v45rsviw5bp23cdf0ilg9&#45;system&#45;path -->
<g id="node1" class="node"><title>/nix/store/hl67c5fpac7v45rsviw5bp23cdf0ilg9&#45;system&#45;path</title>
<polygon fill="#8888ff" stroke="black" points="205,-108 101,-108 101,-72 205,-72 205,-108"/>
<text text-anchor="middle" x="153" y="-86.3" font-family="Times,serif" font-size="14.00">system&#45;path</text>
</g>
<!-- /nix/store/ww898i6akgb0wmz1fd15kg7zdg7r5wv5&#45;nixos&#45;14.12.231.139ead2 -->
<g id="node6" class="node"><title>/nix/store/ww898i6akgb0wmz1fd15kg7zdg7r5wv5&#45;nixos&#45;14.12.231.139ead2</title>
<polygon fill="#ffffff" stroke="black" points="243.25,-36 48.75,-36 48.75,-0 243.25,-0 243.25,-36"/>
<text text-anchor="middle" x="146" y="-14.3" font-family="Times,serif" font-size="14.00">nixos&#45;14.12 (27/01/2015)</text>
</g>
<!-- /nix/store/hl67c5fpac7v45rsviw5bp23cdf0ilg9&#45;system&#45;path&#45;&gt;/nix/store/ww898i6akgb0wmz1fd15kg7zdg7r5wv5&#45;nixos&#45;14.12.231.139ead2 -->
<g id="edge2" class="edge"><title>/nix/store/hl67c5fpac7v45rsviw5bp23cdf0ilg9&#45;system&#45;path&#45;&gt;/nix/store/ww898i6akgb0wmz1fd15kg7zdg7r5wv5&#45;nixos&#45;14.12.231.139ead2</title>
<path fill="none" stroke="red" d="M151.27,-71.6966C150.498,-63.9827 149.571,-54.7125 148.711,-46.1124"/>
<polygon fill="red" stroke="red" points="152.188,-45.7064 147.71,-36.1043 145.223,-46.403 152.188,-45.7064"/>
</g>
<!-- /nix/store/ww898i6akgb0wmz1fd15kg7zdg7r5wv5&#45;nixos&#45;14.12.231.139ead3 -->
<g id="node10" class="node"><title>/nix/store/ww898i6akgb0wmz1fd15kg7zdg7r5wv5&#45;nixos&#45;14.12.231.139ead3</title>
<polygon fill="#8888ff" stroke="black" points="456.25,-36 261.75,-36 261.75,-0 456.25,-0 456.25,-36"/>
<text text-anchor="middle" x="359" y="-14.3" font-family="Times,serif" font-size="14.00">nixos&#45;14.12 (28/01/2015)</text>
</g>
<!-- /nix/store/hl67c5fpac7v45rsviw5bp23cdf0ilg9&#45;system&#45;path&#45;&gt;/nix/store/ww898i6akgb0wmz1fd15kg7zdg7r5wv5&#45;nixos&#45;14.12.231.139ead3 -->
<g id="edge10" class="edge"><title>/nix/store/hl67c5fpac7v45rsviw5bp23cdf0ilg9&#45;system&#45;path&#45;&gt;/nix/store/ww898i6akgb0wmz1fd15kg7zdg7r5wv5&#45;nixos&#45;14.12.231.139ead3</title>
<path fill="none" stroke="red" d="M203.13,-71.9656C232.038,-62.1425 268.569,-49.7291 298.998,-39.3891"/>
<polygon fill="red" stroke="red" points="300.303,-42.6422 308.645,-36.1108 298.051,-36.0143 300.303,-42.6422"/>
</g>
<!-- /nix/store/msz913camsfigd1833g54p7w42h8vgns&#45;initrd -->
<g id="node2" class="node"><title>/nix/store/msz913camsfigd1833g54p7w42h8vgns&#45;initrd</title>
<polygon fill="#8888ff" stroke="black" points="278.5,-108 223.5,-108 223.5,-72 278.5,-72 278.5,-108"/>
<text text-anchor="middle" x="251" y="-86.3" font-family="Times,serif" font-size="14.00">initrd</text>
</g>
<!-- /nix/store/msz913camsfigd1833g54p7w42h8vgns&#45;initrd&#45;&gt;/nix/store/ww898i6akgb0wmz1fd15kg7zdg7r5wv5&#45;nixos&#45;14.12.231.139ead2 -->
<g id="edge3" class="edge"><title>/nix/store/msz913camsfigd1833g54p7w42h8vgns&#45;initrd&#45;&gt;/nix/store/ww898i6akgb0wmz1fd15kg7zdg7r5wv5&#45;nixos&#45;14.12.231.139ead2</title>
<path fill="none" stroke="blue" d="M225.314,-71.8761C211.712,-62.8083 194.828,-51.5523 180.139,-41.7592"/>
<polygon fill="blue" stroke="blue" points="182.047,-38.8246 171.785,-36.1898 178.164,-44.649 182.047,-38.8246"/>
</g>
<!-- /nix/store/msz913camsfigd1833g54p7w42h8vgns&#45;initrd&#45;&gt;/nix/store/ww898i6akgb0wmz1fd15kg7zdg7r5wv5&#45;nixos&#45;14.12.231.139ead3 -->
<g id="edge11" class="edge"><title>/nix/store/msz913camsfigd1833g54p7w42h8vgns&#45;initrd&#45;&gt;/nix/store/ww898i6akgb0wmz1fd15kg7zdg7r5wv5&#45;nixos&#45;14.12.231.139ead3</title>
<path fill="none" stroke="blue" d="M277.42,-71.8761C291.41,-62.8083 308.776,-51.5523 323.886,-41.7592"/>
<polygon fill="blue" stroke="blue" points="325.991,-44.5658 332.479,-36.1898 322.183,-38.6917 325.991,-44.5658"/>
</g>
<!-- /nix/store/w0ml58bivg2jyczpjm66rl3c7vklnbkj&#45;linux&#45;3.14.27 -->
<g id="node3" class="node"><title>/nix/store/w0ml58bivg2jyczpjm66rl3c7vklnbkj&#45;linux&#45;3.14.27</title>
<polygon fill="#8888ff" stroke="black" points="407,-108 297,-108 297,-72 407,-72 407,-108"/>
<text text-anchor="middle" x="352" y="-86.3" font-family="Times,serif" font-size="14.00">linux&#45;3.14.27</text>
</g>
<!-- /nix/store/w0ml58bivg2jyczpjm66rl3c7vklnbkj&#45;linux&#45;3.14.27&#45;&gt;/nix/store/ww898i6akgb0wmz1fd15kg7zdg7r5wv5&#45;nixos&#45;14.12.231.139ead2 -->
<g id="edge4" class="edge"><title>/nix/store/w0ml58bivg2jyczpjm66rl3c7vklnbkj&#45;linux&#45;3.14.27&#45;&gt;/nix/store/ww898i6akgb0wmz1fd15kg7zdg7r5wv5&#45;nixos&#45;14.12.231.139ead2</title>
<path fill="none" stroke="magenta" d="M301.87,-71.9656C272.962,-62.1425 236.431,-49.7291 206.002,-39.3891"/>
<polygon fill="magenta" stroke="magenta" points="206.949,-36.0143 196.355,-36.1108 204.697,-42.6422 206.949,-36.0143"/>
</g>
<!-- /nix/store/w0ml58bivg2jyczpjm66rl3c7vklnbkj&#45;linux&#45;3.14.27&#45;&gt;/nix/store/ww898i6akgb0wmz1fd15kg7zdg7r5wv5&#45;nixos&#45;14.12.231.139ead3 -->
<g id="edge12" class="edge"><title>/nix/store/w0ml58bivg2jyczpjm66rl3c7vklnbkj&#45;linux&#45;3.14.27&#45;&gt;/nix/store/ww898i6akgb0wmz1fd15kg7zdg7r5wv5&#45;nixos&#45;14.12.231.139ead3</title>
<path fill="none" stroke="magenta" d="M353.73,-71.6966C354.502,-63.9827 355.429,-54.7125 356.289,-46.1124"/>
<polygon fill="magenta" stroke="magenta" points="359.777,-46.403 357.29,-36.1043 352.812,-45.7064 359.777,-46.403"/>
</g>
<!-- /nix/store/h0v77f8jrcb16rwv4nnz19cnl3v6n8x1&#45;nix.conf -->
<g id="node4" class="node"><title>/nix/store/h0v77f8jrcb16rwv4nnz19cnl3v6n8x1&#45;nix.conf</title>
<polygon fill="#8888ff" stroke="black" points="220,-180 146,-180 146,-144 220,-144 220,-180"/>
<text text-anchor="middle" x="183" y="-158.3" font-family="Times,serif" font-size="14.00">nix.conf</text>
</g>
<!-- /nix/store/9qw73074zbkn5hhkb9zn021rwaxdyafk&#45;etc -->
<g id="node7" class="node"><title>/nix/store/9qw73074zbkn5hhkb9zn021rwaxdyafk&#45;etc</title>
<polygon fill="#ffffff" stroke="black" points="83,-108 29,-108 29,-72 83,-72 83,-108"/>
<text text-anchor="middle" x="56" y="-86.3" font-family="Times,serif" font-size="14.00">etc</text>
</g>
<!-- /nix/store/h0v77f8jrcb16rwv4nnz19cnl3v6n8x1&#45;nix.conf&#45;&gt;/nix/store/9qw73074zbkn5hhkb9zn021rwaxdyafk&#45;etc -->
<g id="edge6" class="edge"><title>/nix/store/h0v77f8jrcb16rwv4nnz19cnl3v6n8x1&#45;nix.conf&#45;&gt;/nix/store/9qw73074zbkn5hhkb9zn021rwaxdyafk&#45;etc</title>
<path fill="none" stroke="burlywood" d="M151.932,-143.876C133.884,-133.928 111.057,-121.346 92.1979,-110.952"/>
<polygon fill="burlywood" stroke="burlywood" points="93.7444,-107.808 83.2971,-106.046 90.3654,-113.938 93.7444,-107.808"/>
</g>
<!-- /nix/store/9qw73074zbkn5hhkb9zn021rwaxdyafi&#45;etc -->
<g id="node11" class="node"><title>/nix/store/9qw73074zbkn5hhkb9zn021rwaxdyafi&#45;etc</title>
<polygon fill="#8888ff" stroke="black" points="479,-108 425,-108 425,-72 479,-72 479,-108"/>
<text text-anchor="middle" x="452" y="-86.3" font-family="Times,serif" font-size="14.00">etc</text>
</g>
<!-- /nix/store/h0v77f8jrcb16rwv4nnz19cnl3v6n8x1&#45;nix.conf&#45;&gt;/nix/store/9qw73074zbkn5hhkb9zn021rwaxdyafi&#45;etc -->
<g id="edge14" class="edge"><title>/nix/store/h0v77f8jrcb16rwv4nnz19cnl3v6n8x1&#45;nix.conf&#45;&gt;/nix/store/9qw73074zbkn5hhkb9zn021rwaxdyafi&#45;etc</title>
<path fill="none" stroke="burlywood" d="M220.119,-152.778C276.322,-140.301 379.565,-117.265 414.803,-107.617"/>
<polygon fill="burlywood" stroke="burlywood" points="416.173,-110.859 424.739,-104.624 414.155,-104.157 416.173,-110.859"/>
</g>
<!-- /nix/store/ilf7i62f6l04jj0wf30krhv04sgkv4yk&#45;ssh_config -->
<g id="node5" class="node"><title>/nix/store/ilf7i62f6l04jj0wf30krhv04sgkv4yk&#45;ssh_config</title>
<polygon fill="#8888ff" stroke="black" points="362,-180 270,-180 270,-144 362,-144 362,-180"/>
<text text-anchor="middle" x="316" y="-158.3" font-family="Times,serif" font-size="14.00">ssh_config</text>
</g>
<!-- /nix/store/ilf7i62f6l04jj0wf30krhv04sgkv4yk&#45;ssh_config&#45;&gt;/nix/store/9qw73074zbkn5hhkb9zn021rwaxdyafk&#45;etc -->
<g id="edge7" class="edge"><title>/nix/store/ilf7i62f6l04jj0wf30krhv04sgkv4yk&#45;ssh_config&#45;&gt;/nix/store/9qw73074zbkn5hhkb9zn021rwaxdyafk&#45;etc</title>
<path fill="none" stroke="blue" d="M269.953,-151.294C218.419,-140.239 137.261,-122.207 92.9279,-107.875"/>
<polygon fill="blue" stroke="blue" points="93.8641,-104.497 83.2697,-104.599 91.615,-111.126 93.8641,-104.497"/>
</g>
<!-- /nix/store/ilf7i62f6l04jj0wf30krhv04sgkv4yk&#45;ssh_config&#45;&gt;/nix/store/9qw73074zbkn5hhkb9zn021rwaxdyafi&#45;etc -->
<g id="edge15" class="edge"><title>/nix/store/ilf7i62f6l04jj0wf30krhv04sgkv4yk&#45;ssh_config&#45;&gt;/nix/store/9qw73074zbkn5hhkb9zn021rwaxdyafi&#45;etc</title>
<path fill="none" stroke="blue" d="M349.269,-143.876C369.318,-133.557 394.873,-120.403 415.48,-109.797"/>
<polygon fill="blue" stroke="blue" points="417.272,-112.811 424.561,-105.123 414.068,-106.587 417.272,-112.811"/>
</g>
<!-- /nix/store/9qw73074zbkn5hhkb9zn021rwaxdyafk&#45;etc&#45;&gt;/nix/store/ww898i6akgb0wmz1fd15kg7zdg7r5wv5&#45;nixos&#45;14.12.231.139ead2 -->
<g id="edge1" class="edge"><title>/nix/store/9qw73074zbkn5hhkb9zn021rwaxdyafk&#45;etc&#45;&gt;/nix/store/ww898i6akgb0wmz1fd15kg7zdg7r5wv5&#45;nixos&#45;14.12.231.139ead2</title>
<path fill="none" stroke="green" d="M78.2472,-71.6966C89.5819,-62.8807 103.53,-52.0321 115.819,-42.4742"/>
<polygon fill="green" stroke="green" points="118.264,-45.0065 124.009,-36.1043 113.966,-39.481 118.264,-45.0065"/>
</g>
<!-- /nix/store/vpcwnc6b51ndhkzdss282l27l96l9nxz&#45;httpd.conf -->
<g id="node8" class="node"><title>/nix/store/vpcwnc6b51ndhkzdss282l27l96l9nxz&#45;httpd.conf</title>
<polygon fill="#ffffff" stroke="black" points="101.25,-252 10.75,-252 10.75,-216 101.25,-216 101.25,-252"/>
<text text-anchor="middle" x="56" y="-230.3" font-family="Times,serif" font-size="14.00">httpd.conf</text>
</g>
<!-- /nix/store/f9nr84g44823ixnk7ra535lynrnnh55r&#45;unit&#45;httpd.service -->
<g id="node9" class="node"><title>/nix/store/f9nr84g44823ixnk7ra535lynrnnh55r&#45;unit&#45;httpd.service</title>
<polygon fill="#ffffff" stroke="black" points="111.5,-180 0.5,-180 0.5,-144 111.5,-144 111.5,-180"/>
<text text-anchor="middle" x="56" y="-158.3" font-family="Times,serif" font-size="14.00">httpd.service</text>
</g>
<!-- /nix/store/vpcwnc6b51ndhkzdss282l27l96l9nxz&#45;httpd.conf&#45;&gt;/nix/store/f9nr84g44823ixnk7ra535lynrnnh55r&#45;unit&#45;httpd.service -->
<g id="edge8" class="edge"><title>/nix/store/vpcwnc6b51ndhkzdss282l27l96l9nxz&#45;httpd.conf&#45;&gt;/nix/store/f9nr84g44823ixnk7ra535lynrnnh55r&#45;unit&#45;httpd.service</title>
<path fill="none" stroke="magenta" d="M56,-215.697C56,-207.983 56,-198.712 56,-190.112"/>
<polygon fill="magenta" stroke="magenta" points="59.5001,-190.104 56,-180.104 52.5001,-190.104 59.5001,-190.104"/>
</g>
<!-- /nix/store/f9nr84g44823ixnk7ra535lynrnnh55r&#45;unit&#45;httpd.service&#45;&gt;/nix/store/9qw73074zbkn5hhkb9zn021rwaxdyafk&#45;etc -->
<g id="edge5" class="edge"><title>/nix/store/f9nr84g44823ixnk7ra535lynrnnh55r&#45;unit&#45;httpd.service&#45;&gt;/nix/store/9qw73074zbkn5hhkb9zn021rwaxdyafk&#45;etc</title>
<path fill="none" stroke="red" d="M56,-143.697C56,-135.983 56,-126.712 56,-118.112"/>
<polygon fill="red" stroke="red" points="59.5001,-118.104 56,-108.104 52.5001,-118.104 59.5001,-118.104"/>
</g>
<!-- /nix/store/9qw73074zbkn5hhkb9zn021rwaxdyafi&#45;etc&#45;&gt;/nix/store/ww898i6akgb0wmz1fd15kg7zdg7r5wv5&#45;nixos&#45;14.12.231.139ead3 -->
<g id="edge9" class="edge"><title>/nix/store/9qw73074zbkn5hhkb9zn021rwaxdyafi&#45;etc&#45;&gt;/nix/store/ww898i6akgb0wmz1fd15kg7zdg7r5wv5&#45;nixos&#45;14.12.231.139ead3</title>
<path fill="none" stroke="green" d="M429.011,-71.6966C417.186,-62.796 402.608,-51.8232 389.821,-42.1989"/>
<polygon fill="green" stroke="green" points="391.819,-39.3217 381.724,-36.1043 387.609,-44.9145 391.819,-39.3217"/>
</g>
<!-- /nix/store/vpcwnc6b51ndhkzdss282l27l96l9nxa&#45;httpd.conf -->
<g id="node12" class="node"><title>/nix/store/vpcwnc6b51ndhkzdss282l27l96l9nxa&#45;httpd.conf</title>
<polygon fill="#8888ff" stroke="black" points="497.25,-252 406.75,-252 406.75,-216 497.25,-216 497.25,-252"/>
<text text-anchor="middle" x="452" y="-230.3" font-family="Times,serif" font-size="14.00">httpd.conf</text>
</g>
<!-- /nix/store/f9nr84g44823ixnk7ra535lynrnnh55a&#45;unit&#45;httpd.service -->
<g id="node13" class="node"><title>/nix/store/f9nr84g44823ixnk7ra535lynrnnh55a&#45;unit&#45;httpd.service</title>
<polygon fill="#8888ff" stroke="black" points="507.5,-180 396.5,-180 396.5,-144 507.5,-144 507.5,-180"/>
<text text-anchor="middle" x="452" y="-158.3" font-family="Times,serif" font-size="14.00">httpd.service</text>
</g>
<!-- /nix/store/vpcwnc6b51ndhkzdss282l27l96l9nxa&#45;httpd.conf&#45;&gt;/nix/store/f9nr84g44823ixnk7ra535lynrnnh55a&#45;unit&#45;httpd.service -->
<g id="edge16" class="edge"><title>/nix/store/vpcwnc6b51ndhkzdss282l27l96l9nxa&#45;httpd.conf&#45;&gt;/nix/store/f9nr84g44823ixnk7ra535lynrnnh55a&#45;unit&#45;httpd.service</title>
<path fill="none" stroke="magenta" d="M452,-215.697C452,-207.983 452,-198.712 452,-190.112"/>
<polygon fill="magenta" stroke="magenta" points="455.5,-190.104 452,-180.104 448.5,-190.104 455.5,-190.104"/>
</g>
<!-- /nix/store/f9nr84g44823ixnk7ra535lynrnnh55a&#45;unit&#45;httpd.service&#45;&gt;/nix/store/9qw73074zbkn5hhkb9zn021rwaxdyafi&#45;etc -->
<g id="edge13" class="edge"><title>/nix/store/f9nr84g44823ixnk7ra535lynrnnh55a&#45;unit&#45;httpd.service&#45;&gt;/nix/store/9qw73074zbkn5hhkb9zn021rwaxdyafi&#45;etc</title>
<path fill="none" stroke="red" d="M452,-143.697C452,-135.983 452,-126.712 452,-118.112"/>
<polygon fill="red" stroke="red" points="455.5,-118.104 452,-108.104 448.5,-118.104 455.5,-118.104"/>
</g>
</g>
</svg>
