<?xml version="1.0" encoding="UTF-8" standalone="no"?>
<!DOCTYPE svg PUBLIC "-//W3C//DTD SVG 1.1//EN"
 "http://www.w3.org/Graphics/SVG/1.1/DTD/svg11.dtd">
<!-- Generated by graphviz version 2.36.0 (20140111.2315)
 -->
<!-- Title: G Pages: 1 -->
<svg width="904pt" height="548pt"
 viewBox="0.00 0.00 904.00 548.00" xmlns="http://www.w3.org/2000/svg" xmlns:xlink="http://www.w3.org/1999/xlink">
<g id="graph0" class="graph" transform="scale(1 1) rotate(0) translate(4 544)">
<title>G</title>
<!-- /nix/store/l8rhnzq9yxqhv3il4kmzqhkx8q06jzgv&#45;python&#45;2.7.9 -->
<g id="node1" class="node"><title>/nix/store/l8rhnzq9yxqhv3il4kmzqhkx8q06jzgv&#45;python&#45;2.7.9</title>
<polygon fill="#ff8888" stroke="black" points="460.25,-36 353.75,-36 353.75,-0 460.25,-0 460.25,-36"/>
<text text-anchor="middle" x="407" y="-14.3" font-family="Times,serif" font-size="14.00">python&#45;2.7.9</text>
</g>
<!-- /nix/store/8nxzd6jkgcihyx26m246ycpnpivicpak&#45;openssl&#45;1.0.1k -->
<g id="node2" class="node"><title>/nix/store/8nxzd6jkgcihyx26m246ycpnpivicpak&#45;openssl&#45;1.0.1k</title>
<polygon fill="#ff8888" stroke="black" points="183.5,-108 64.5,-108 64.5,-72 183.5,-72 183.5,-108"/>
<text text-anchor="middle" x="124" y="-86.3" font-family="Times,serif" font-size="14.00">openssl&#45;1.0.1k</text>
</g>
<!-- /nix/store/8nxzd6jkgcihyx26m246ycpnpivicpak&#45;openssl&#45;1.0.1k&#45;&gt;/nix/store/l8rhnzq9yxqhv3il4kmzqhkx8q06jzgv&#45;python&#45;2.7.9 -->
<g id="edge1" class="edge"><title>/nix/store/8nxzd6jkgcihyx26m246ycpnpivicpak&#45;openssl&#45;1.0.1k&#45;&gt;/nix/store/l8rhnzq9yxqhv3il4kmzqhkx8q06jzgv&#45;python&#45;2.7.9</title>
<path fill="none" stroke="black" d="M183.671,-74.2403C230.604,-62.6314 295.837,-46.4962 343.684,-34.6611"/>
<polygon fill="black" stroke="black" points="344.751,-38.0029 353.618,-32.2041 343.07,-31.2077 344.751,-38.0029"/>
</g>
<!-- /nix/store/96vfgc1gfwslmg3hhfzkxsvqqc61mh89&#45;bzip2&#45;1.0.6 -->
<g id="node3" class="node"><title>/nix/store/96vfgc1gfwslmg3hhfzkxsvqqc61mh89&#45;bzip2&#45;1.0.6</title>
<polygon fill="#ffffff" stroke="black" points="550,-252 454,-252 454,-216 550,-216 550,-252"/>
<text text-anchor="middle" x="502" y="-230.3" font-family="Times,serif" font-size="14.00">bzip2&#45;1.0.6</text>
</g>
<!-- /nix/store/96vfgc1gfwslmg3hhfzkxsvqqc61mh89&#45;bzip2&#45;1.0.6&#45;&gt;/nix/store/l8rhnzq9yxqhv3il4kmzqhkx8q06jzgv&#45;python&#45;2.7.9 -->
<g id="edge2" class="edge"><title>/nix/store/96vfgc1gfwslmg3hhfzkxsvqqc61mh89&#45;bzip2&#45;1.0.6&#45;&gt;/nix/store/l8rhnzq9yxqhv3il4kmzqhkx8q06jzgv&#45;python&#45;2.7.9</title>
<path fill="none" stroke="red" d="M503.831,-215.712C505.14,-197.36 505.414,-167.781 497,-144 483.136,-104.817 452.931,-67.1349 431.338,-43.5755"/>
<polygon fill="red" stroke="red" points="433.771,-41.0531 424.381,-36.1454 428.661,-45.8374 433.771,-41.0531"/>
</g>
<!-- /nix/store/python&#45;2.7.9&#45;libressl -->
<g id="node13" class="node"><title>/nix/store/python&#45;2.7.9&#45;libressl</title>
<polygon fill="#88ff88" stroke="black" points="719,-180 545,-180 545,-144 719,-144 719,-180"/>
<text text-anchor="middle" x="632" y="-158.3" font-family="Times,serif" font-size="14.00">python&#45;2.7.9 (libressl)</text>
</g>
<!-- /nix/store/96vfgc1gfwslmg3hhfzkxsvqqc61mh89&#45;bzip2&#45;1.0.6&#45;&gt;/nix/store/python&#45;2.7.9&#45;libressl -->
<g id="edge25" class="edge"><title>/nix/store/96vfgc1gfwslmg3hhfzkxsvqqc61mh89&#45;bzip2&#45;1.0.6&#45;&gt;/nix/store/python&#45;2.7.9&#45;libressl</title>
<path fill="none" stroke="black" d="M533.802,-215.876C551.114,-206.554 572.721,-194.919 591.256,-184.939"/>
<polygon fill="black" stroke="black" points="592.931,-188.012 600.076,-180.19 589.612,-181.849 592.931,-188.012"/>
</g>
<!-- /nix/store/python&#45;2.7.9&#45;nossl -->
<g id="node15" class="node"><title>/nix/store/python&#45;2.7.9&#45;nossl</title>
<polygon fill="#8888ff" stroke="black" points="488.25,-180 325.75,-180 325.75,-144 488.25,-144 488.25,-180"/>
<text text-anchor="middle" x="407" y="-158.3" font-family="Times,serif" font-size="14.00">python&#45;2.7.9 (no ssl)</text>
</g>
<!-- /nix/store/96vfgc1gfwslmg3hhfzkxsvqqc61mh89&#45;bzip2&#45;1.0.6&#45;&gt;/nix/store/python&#45;2.7.9&#45;nossl -->
<g id="edge32" class="edge"><title>/nix/store/96vfgc1gfwslmg3hhfzkxsvqqc61mh89&#45;bzip2&#45;1.0.6&#45;&gt;/nix/store/python&#45;2.7.9&#45;nossl</title>
<path fill="none" stroke="green" d="M478.517,-215.697C466.437,-206.796 451.546,-195.823 438.484,-186.199"/>
<polygon fill="green" stroke="green" points="440.34,-183.219 430.213,-180.104 436.187,-188.854 440.34,-183.219"/>
</g>
<!-- /nix/store/a2p5i9hb5hpqssh7vp402r6n9slfayqx&#45;zlib&#45;1.2.8 -->
<g id="node4" class="node"><title>/nix/store/a2p5i9hb5hpqssh7vp402r6n9slfayqx&#45;zlib&#45;1.2.8</title>
<polygon fill="#ffffff" stroke="black" points="368.25,-324 285.75,-324 285.75,-288 368.25,-288 368.25,-324"/>
<text text-anchor="middle" x="327" y="-302.3" font-family="Times,serif" font-size="14.00">zlib&#45;1.2.8</text>
</g>
<!-- /nix/store/a2p5i9hb5hpqssh7vp402r6n9slfayqx&#45;zlib&#45;1.2.8&#45;&gt;/nix/store/l8rhnzq9yxqhv3il4kmzqhkx8q06jzgv&#45;python&#45;2.7.9 -->
<g id="edge3" class="edge"><title>/nix/store/a2p5i9hb5hpqssh7vp402r6n9slfayqx&#45;zlib&#45;1.2.8&#45;&gt;/nix/store/l8rhnzq9yxqhv3il4kmzqhkx8q06jzgv&#45;python&#45;2.7.9</title>
<path fill="none" stroke="green" d="M321.634,-287.558C313.273,-257.436 299.7,-194.085 316,-144 328.837,-104.556 359.335,-67.1841 381.494,-43.7557"/>
<polygon fill="green" stroke="green" points="384.211,-45.9813 388.652,-36.3621 379.182,-41.1124 384.211,-45.9813"/>
</g>
<!-- /nix/store/p9rmkj5s68cjhjnb8msj477wcm5157rx&#45;gcc&#45;4.8.4 -->
<g id="node9" class="node"><title>/nix/store/p9rmkj5s68cjhjnb8msj477wcm5157rx&#45;gcc&#45;4.8.4</title>
<polygon fill="#ff8888" stroke="black" points="149.25,-252 66.75,-252 66.75,-216 149.25,-216 149.25,-252"/>
<text text-anchor="middle" x="108" y="-230.3" font-family="Times,serif" font-size="14.00">gcc&#45;4.8.4</text>
</g>
<!-- /nix/store/a2p5i9hb5hpqssh7vp402r6n9slfayqx&#45;zlib&#45;1.2.8&#45;&gt;/nix/store/p9rmkj5s68cjhjnb8msj477wcm5157rx&#45;gcc&#45;4.8.4 -->
<g id="edge22" class="edge"><title>/nix/store/a2p5i9hb5hpqssh7vp402r6n9slfayqx&#45;zlib&#45;1.2.8&#45;&gt;/nix/store/p9rmkj5s68cjhjnb8msj477wcm5157rx&#45;gcc&#45;4.8.4</title>
<path fill="none" stroke="blue" d="M285.554,-291.095C282.324,-290.039 279.111,-288.997 276,-288 224.19,-271.397 210.81,-268.603 159,-252 158.903,-251.969 158.805,-251.938 158.708,-251.906"/>
<polygon fill="blue" stroke="blue" points="160.038,-248.658 149.446,-248.905 157.88,-255.317 160.038,-248.658"/>
</g>
<!-- /nix/store/a2p5i9hb5hpqssh7vp402r6n9slfayqx&#45;zlib&#45;1.2.8&#45;&gt;/nix/store/python&#45;2.7.9&#45;libressl -->
<g id="edge26" class="edge"><title>/nix/store/a2p5i9hb5hpqssh7vp402r6n9slfayqx&#45;zlib&#45;1.2.8&#45;&gt;/nix/store/python&#45;2.7.9&#45;libressl</title>
<path fill="none" stroke="red" d="M368.601,-303.529C417.539,-300.074 499.629,-288.746 559,-252 584.051,-236.495 604.458,-209.333 617.263,-189.082"/>
<polygon fill="red" stroke="red" points="620.382,-190.69 622.6,-180.33 614.405,-187.046 620.382,-190.69"/>
</g>
<!-- /nix/store/a2p5i9hb5hpqssh7vp402r6n9slfayqx&#45;zlib&#45;1.2.8&#45;&gt;/nix/store/python&#45;2.7.9&#45;nossl -->
<g id="edge33" class="edge"><title>/nix/store/a2p5i9hb5hpqssh7vp402r6n9slfayqx&#45;zlib&#45;1.2.8&#45;&gt;/nix/store/python&#45;2.7.9&#45;nossl</title>
<path fill="none" stroke="blue" d="M335.654,-287.742C344.825,-269.666 359.901,-240.546 374,-216 379.075,-207.165 384.872,-197.672 390.177,-189.196"/>
<polygon fill="blue" stroke="blue" points="393.303,-190.801 395.683,-180.477 387.384,-187.064 393.303,-190.801"/>
</g>
<!-- /nix/store/cxrc12hkmvrjlq747cm08av6jl41nzi1&#45;bash&#45;4.3&#45;p30 -->
<g id="node5" class="node"><title>/nix/store/cxrc12hkmvrjlq747cm08av6jl41nzi1&#45;bash&#45;4.3&#45;p30</title>
<polygon fill="#ffffff" stroke="black" points="670.25,-324 561.75,-324 561.75,-288 670.25,-288 670.25,-324"/>
<text text-anchor="middle" x="616" y="-302.3" font-family="Times,serif" font-size="14.00">bash&#45;4.3&#45;p30</text>
</g>
<!-- /nix/store/cxrc12hkmvrjlq747cm08av6jl41nzi1&#45;bash&#45;4.3&#45;p30&#45;&gt;/nix/store/l8rhnzq9yxqhv3il4kmzqhkx8q06jzgv&#45;python&#45;2.7.9 -->
<g id="edge4" class="edge"><title>/nix/store/cxrc12hkmvrjlq747cm08av6jl41nzi1&#45;bash&#45;4.3&#45;p30&#45;&gt;/nix/store/l8rhnzq9yxqhv3il4kmzqhkx8q06jzgv&#45;python&#45;2.7.9</title>
<path fill="none" stroke="blue" d="M670.592,-303.711C709.097,-299.589 758.233,-287.148 784,-252 803.231,-225.767 765.842,-148.991 761,-144 682.817,-63.4161 549.559,-34.6826 470.75,-24.5073"/>
<polygon fill="blue" stroke="blue" points="470.826,-20.9904 460.474,-23.2459 469.973,-27.9383 470.826,-20.9904"/>
</g>
<!-- /nix/store/cxrc12hkmvrjlq747cm08av6jl41nzi1&#45;bash&#45;4.3&#45;p30&#45;&gt;/nix/store/8nxzd6jkgcihyx26m246ycpnpivicpak&#45;openssl&#45;1.0.1k -->
<g id="edge8" class="edge"><title>/nix/store/cxrc12hkmvrjlq747cm08av6jl41nzi1&#45;bash&#45;4.3&#45;p30&#45;&gt;/nix/store/8nxzd6jkgcihyx26m246ycpnpivicpak&#45;openssl&#45;1.0.1k</title>
<path fill="none" stroke="red" d="M670.465,-300.565C703.1,-294.776 742.182,-281.636 763,-252 792.004,-210.711 769.561,-172.612 728,-144 684.827,-114.278 343.221,-98.723 193.69,-93.2816"/>
<polygon fill="red" stroke="red" points="193.812,-89.7839 183.693,-92.9225 193.561,-96.7794 193.812,-89.7839"/>
</g>
<!-- /nix/store/cxrc12hkmvrjlq747cm08av6jl41nzi1&#45;bash&#45;4.3&#45;p30&#45;&gt;/nix/store/python&#45;2.7.9&#45;libressl -->
<g id="edge27" class="edge"><title>/nix/store/cxrc12hkmvrjlq747cm08av6jl41nzi1&#45;bash&#45;4.3&#45;p30&#45;&gt;/nix/store/python&#45;2.7.9&#45;libressl</title>
<path fill="none" stroke="green" d="M617.93,-287.871C620.657,-263.67 625.666,-219.211 628.913,-190.393"/>
<polygon fill="green" stroke="green" points="632.421,-190.518 630.063,-180.189 625.465,-189.734 632.421,-190.518"/>
</g>
<!-- /nix/store/libressl&#45;2.0.5 -->
<g id="node14" class="node"><title>/nix/store/libressl&#45;2.0.5</title>
<polygon fill="#88ff88" stroke="black" points="754,-252 644,-252 644,-216 754,-216 754,-252"/>
<text text-anchor="middle" x="699" y="-230.3" font-family="Times,serif" font-size="14.00">libressl&#45;2.0.5</text>
</g>
<!-- /nix/store/cxrc12hkmvrjlq747cm08av6jl41nzi1&#45;bash&#45;4.3&#45;p30&#45;&gt;/nix/store/libressl&#45;2.0.5 -->
<g id="edge30" class="edge"><title>/nix/store/cxrc12hkmvrjlq747cm08av6jl41nzi1&#45;bash&#45;4.3&#45;p30&#45;&gt;/nix/store/libressl&#45;2.0.5</title>
<path fill="none" stroke="black" d="M636.517,-287.697C646.869,-278.965 659.586,-268.24 670.839,-258.75"/>
<polygon fill="black" stroke="black" points="673.331,-261.227 678.719,-252.104 668.818,-255.876 673.331,-261.227"/>
</g>
<!-- /nix/store/cxrc12hkmvrjlq747cm08av6jl41nzi1&#45;bash&#45;4.3&#45;p30&#45;&gt;/nix/store/python&#45;2.7.9&#45;nossl -->
<g id="edge34" class="edge"><title>/nix/store/cxrc12hkmvrjlq747cm08av6jl41nzi1&#45;bash&#45;4.3&#45;p30&#45;&gt;/nix/store/python&#45;2.7.9&#45;nossl</title>
<path fill="none" stroke="magenta" d="M561.597,-300.04C524.737,-294.074 477.08,-280.936 445,-252 427.128,-235.88 417.359,-209.932 412.22,-190.203"/>
<polygon fill="magenta" stroke="magenta" points="415.578,-189.192 409.878,-180.261 408.764,-190.797 415.578,-189.192"/>
</g>
<!-- /nix/store/h4ssyq8lac0ywmn8j0lsichvj9fvcfyd&#45;coreutils&#45;8.23 -->
<g id="node6" class="node"><title>/nix/store/h4ssyq8lac0ywmn8j0lsichvj9fvcfyd&#45;coreutils&#45;8.23</title>
<polygon fill="#ffffff" stroke="black" points="283.5,-252 168.5,-252 168.5,-216 283.5,-216 283.5,-252"/>
<text text-anchor="middle" x="226" y="-230.3" font-family="Times,serif" font-size="14.00">coreutils&#45;8.23</text>
</g>
<!-- /nix/store/h4ssyq8lac0ywmn8j0lsichvj9fvcfyd&#45;coreutils&#45;8.23&#45;&gt;/nix/store/l8rhnzq9yxqhv3il4kmzqhkx8q06jzgv&#45;python&#45;2.7.9 -->
<g id="edge5" class="edge"><title>/nix/store/h4ssyq8lac0ywmn8j0lsichvj9fvcfyd&#45;coreutils&#45;8.23&#45;&gt;/nix/store/l8rhnzq9yxqhv3il4kmzqhkx8q06jzgv&#45;python&#45;2.7.9</title>
<path fill="none" stroke="magenta" d="M227.602,-215.628C231.46,-183.321 244.045,-113.517 283,-72 299.327,-54.5995 322.307,-42.6536 344.056,-34.577"/>
<polygon fill="magenta" stroke="magenta" points="345.319,-37.8432 353.604,-31.2404 343.01,-31.235 345.319,-37.8432"/>
</g>
<!-- /nix/store/482l1wbyrbqzy8pm0mh9psvk7f7x2qnf&#45;perl&#45;5.20.1 -->
<g id="node8" class="node"><title>/nix/store/482l1wbyrbqzy8pm0mh9psvk7f7x2qnf&#45;perl&#45;5.20.1</title>
<polygon fill="#ff8888" stroke="black" points="163.25,-180 68.75,-180 68.75,-144 163.25,-144 163.25,-180"/>
<text text-anchor="middle" x="116" y="-158.3" font-family="Times,serif" font-size="14.00">perl&#45;5.20.1</text>
</g>
<!-- /nix/store/h4ssyq8lac0ywmn8j0lsichvj9fvcfyd&#45;coreutils&#45;8.23&#45;&gt;/nix/store/482l1wbyrbqzy8pm0mh9psvk7f7x2qnf&#45;perl&#45;5.20.1 -->
<g id="edge10" class="edge"><title>/nix/store/h4ssyq8lac0ywmn8j0lsichvj9fvcfyd&#45;coreutils&#45;8.23&#45;&gt;/nix/store/482l1wbyrbqzy8pm0mh9psvk7f7x2qnf&#45;perl&#45;5.20.1</title>
<path fill="none" stroke="blue" d="M199.091,-215.876C184.842,-206.808 167.154,-195.552 151.764,-185.759"/>
<polygon fill="blue" stroke="blue" points="153.328,-182.606 143.012,-180.19 149.57,-188.511 153.328,-182.606"/>
</g>
<!-- /nix/store/h4ssyq8lac0ywmn8j0lsichvj9fvcfyd&#45;coreutils&#45;8.23&#45;&gt;/nix/store/python&#45;2.7.9&#45;libressl -->
<g id="edge28" class="edge"><title>/nix/store/h4ssyq8lac0ywmn8j0lsichvj9fvcfyd&#45;coreutils&#45;8.23&#45;&gt;/nix/store/python&#45;2.7.9&#45;libressl</title>
<path fill="none" stroke="blue" d="M283.739,-223.045C349.137,-211.77 456.773,-193.212 535.099,-179.707"/>
<polygon fill="blue" stroke="blue" points="535.722,-183.151 544.982,-178.003 534.533,-176.253 535.722,-183.151"/>
</g>
<!-- /nix/store/h4ssyq8lac0ywmn8j0lsichvj9fvcfyd&#45;coreutils&#45;8.23&#45;&gt;/nix/store/python&#45;2.7.9&#45;nossl -->
<g id="edge35" class="edge"><title>/nix/store/h4ssyq8lac0ywmn8j0lsichvj9fvcfyd&#45;coreutils&#45;8.23&#45;&gt;/nix/store/python&#45;2.7.9&#45;nossl</title>
<path fill="none" stroke="burlywood" d="M270.278,-215.876C295.351,-206.179 326.896,-193.98 353.365,-183.743"/>
<polygon fill="burlywood" stroke="burlywood" points="354.802,-186.94 362.866,-180.068 352.277,-180.411 354.802,-186.94"/>
</g>
<!-- /nix/store/nrxyygy0wqski1klq0305d3h523k41ps&#45;glibc&#45;2.20 -->
<g id="node7" class="node"><title>/nix/store/nrxyygy0wqski1klq0305d3h523k41ps&#45;glibc&#45;2.20</title>
<polygon fill="#ffffff" stroke="black" points="402.5,-468 315.5,-468 315.5,-432 402.5,-432 402.5,-468"/>
<text text-anchor="middle" x="359" y="-446.3" font-family="Times,serif" font-size="14.00">glibc&#45;2.20</text>
</g>
<!-- /nix/store/nrxyygy0wqski1klq0305d3h523k41ps&#45;glibc&#45;2.20&#45;&gt;/nix/store/l8rhnzq9yxqhv3il4kmzqhkx8q06jzgv&#45;python&#45;2.7.9 -->
<g id="edge6" class="edge"><title>/nix/store/nrxyygy0wqski1klq0305d3h523k41ps&#45;glibc&#45;2.20&#45;&gt;/nix/store/l8rhnzq9yxqhv3il4kmzqhkx8q06jzgv&#45;python&#45;2.7.9</title>
<path fill="none" stroke="burlywood" d="M402.945,-446.81C531.196,-439.233 896,-408.737 896,-307 896,-307 896,-307 896,-161 896,-73.334 602.493,-36.2733 470.261,-24.0249"/>
<polygon fill="burlywood" stroke="burlywood" points="470.538,-20.5358 460.262,-23.1177 469.905,-27.5072 470.538,-20.5358"/>
</g>
<!-- /nix/store/nrxyygy0wqski1klq0305d3h523k41ps&#45;glibc&#45;2.20&#45;&gt;/nix/store/8nxzd6jkgcihyx26m246ycpnpivicpak&#45;openssl&#45;1.0.1k -->
<g id="edge9" class="edge"><title>/nix/store/nrxyygy0wqski1klq0305d3h523k41ps&#45;glibc&#45;2.20&#45;&gt;/nix/store/8nxzd6jkgcihyx26m246ycpnpivicpak&#45;openssl&#45;1.0.1k</title>
<path fill="none" stroke="green" d="M315.311,-447.073C261.725,-443.184 169.351,-431.442 99,-396 46.1604,-369.38 0,-366.166 0,-307 0,-307 0,-307 0,-233 0,-180.429 48.8155,-137.926 85.1895,-113.553"/>
<polygon fill="green" stroke="green" points="87.1881,-116.428 93.6662,-108.045 83.3739,-110.559 87.1881,-116.428"/>
</g>
<!-- /nix/store/nrxyygy0wqski1klq0305d3h523k41ps&#45;glibc&#45;2.20&#45;&gt;/nix/store/96vfgc1gfwslmg3hhfzkxsvqqc61mh89&#45;bzip2&#45;1.0.6 -->
<g id="edge13" class="edge"><title>/nix/store/nrxyygy0wqski1klq0305d3h523k41ps&#45;glibc&#45;2.20&#45;&gt;/nix/store/96vfgc1gfwslmg3hhfzkxsvqqc61mh89&#45;bzip2&#45;1.0.6</title>
<path fill="none" stroke="black" d="M378.053,-431.919C388.484,-422.019 401.233,-408.977 411,-396 444.069,-352.06 473.624,-294.846 489.563,-261.79"/>
<polygon fill="black" stroke="black" points="492.92,-262.881 494.061,-252.348 486.601,-259.87 492.92,-262.881"/>
</g>
<!-- /nix/store/nrxyygy0wqski1klq0305d3h523k41ps&#45;glibc&#45;2.20&#45;&gt;/nix/store/a2p5i9hb5hpqssh7vp402r6n9slfayqx&#45;zlib&#45;1.2.8 -->
<g id="edge14" class="edge"><title>/nix/store/nrxyygy0wqski1klq0305d3h523k41ps&#45;glibc&#45;2.20&#45;&gt;/nix/store/a2p5i9hb5hpqssh7vp402r6n9slfayqx&#45;zlib&#45;1.2.8</title>
<path fill="none" stroke="red" d="M355.174,-431.936C351.155,-414.019 344.645,-385.027 339,-360 337.102,-351.588 335.03,-342.426 333.15,-334.122"/>
<polygon fill="red" stroke="red" points="336.521,-333.164 330.898,-324.184 329.694,-334.71 336.521,-333.164"/>
</g>
<!-- /nix/store/nrxyygy0wqski1klq0305d3h523k41ps&#45;glibc&#45;2.20&#45;&gt;/nix/store/cxrc12hkmvrjlq747cm08av6jl41nzi1&#45;bash&#45;4.3&#45;p30 -->
<g id="edge15" class="edge"><title>/nix/store/nrxyygy0wqski1klq0305d3h523k41ps&#45;glibc&#45;2.20&#45;&gt;/nix/store/cxrc12hkmvrjlq747cm08av6jl41nzi1&#45;bash&#45;4.3&#45;p30</title>
<path fill="none" stroke="green" d="M402.562,-433.145C427.297,-423.538 458.514,-410.382 485,-396 521.036,-376.432 559.546,-349.457 585.416,-330.347"/>
<polygon fill="green" stroke="green" points="587.754,-332.97 593.683,-324.19 583.573,-327.356 587.754,-332.97"/>
</g>
<!-- /nix/store/nrxyygy0wqski1klq0305d3h523k41ps&#45;glibc&#45;2.20&#45;&gt;/nix/store/h4ssyq8lac0ywmn8j0lsichvj9fvcfyd&#45;coreutils&#45;8.23 -->
<g id="edge17" class="edge"><title>/nix/store/nrxyygy0wqski1klq0305d3h523k41ps&#45;glibc&#45;2.20&#45;&gt;/nix/store/h4ssyq8lac0ywmn8j0lsichvj9fvcfyd&#45;coreutils&#45;8.23</title>
<path fill="none" stroke="magenta" d="M315.418,-441.426C284.104,-434.158 242.398,-420.535 213,-396 173.459,-363 150.851,-335.397 171,-288 175.735,-276.862 184.084,-266.93 192.868,-258.759"/>
<polygon fill="magenta" stroke="magenta" points="195.352,-261.238 200.62,-252.045 190.77,-255.946 195.352,-261.238"/>
</g>
<!-- /nix/store/nrxyygy0wqski1klq0305d3h523k41ps&#45;glibc&#45;2.20&#45;&gt;/nix/store/482l1wbyrbqzy8pm0mh9psvk7f7x2qnf&#45;perl&#45;5.20.1 -->
<g id="edge11" class="edge"><title>/nix/store/nrxyygy0wqski1klq0305d3h523k41ps&#45;glibc&#45;2.20&#45;&gt;/nix/store/482l1wbyrbqzy8pm0mh9psvk7f7x2qnf&#45;perl&#45;5.20.1</title>
<path fill="none" stroke="magenta" d="M315.092,-447.969C268.248,-444.805 193.923,-433.64 143,-396 83.0533,-351.691 76.8251,-323.86 57,-252 52.7448,-236.576 50.4837,-230.613 57,-216 62.0819,-204.604 70.9596,-194.634 80.3088,-186.509"/>
<polygon fill="magenta" stroke="magenta" points="82.6253,-189.137 88.2,-180.128 78.2236,-183.694 82.6253,-189.137"/>
</g>
<!-- /nix/store/nrxyygy0wqski1klq0305d3h523k41ps&#45;glibc&#45;2.20&#45;&gt;/nix/store/p9rmkj5s68cjhjnb8msj477wcm5157rx&#45;gcc&#45;4.8.4 -->
<g id="edge23" class="edge"><title>/nix/store/nrxyygy0wqski1klq0305d3h523k41ps&#45;glibc&#45;2.20&#45;&gt;/nix/store/p9rmkj5s68cjhjnb8msj477wcm5157rx&#45;gcc&#45;4.8.4</title>
<path fill="none" stroke="magenta" d="M315.321,-447.091C274.189,-443.077 213.198,-431.106 174,-396 134.539,-360.658 118.171,-298.19 111.774,-262.341"/>
<polygon fill="magenta" stroke="magenta" points="115.171,-261.429 110.095,-252.13 108.264,-262.565 115.171,-261.429"/>
</g>
<!-- /nix/store/54whwk19x8cgak0pwnnzzq282hwaf8f3&#45;acl&#45;2.2.52 -->
<g id="node10" class="node"><title>/nix/store/54whwk19x8cgak0pwnnzzq282hwaf8f3&#45;acl&#45;2.2.52</title>
<polygon fill="#ffffff" stroke="black" points="267.25,-324 180.75,-324 180.75,-288 267.25,-288 267.25,-324"/>
<text text-anchor="middle" x="224" y="-302.3" font-family="Times,serif" font-size="14.00">acl&#45;2.2.52</text>
</g>
<!-- /nix/store/nrxyygy0wqski1klq0305d3h523k41ps&#45;glibc&#45;2.20&#45;&gt;/nix/store/54whwk19x8cgak0pwnnzzq282hwaf8f3&#45;acl&#45;2.2.52 -->
<g id="edge19" class="edge"><title>/nix/store/nrxyygy0wqski1klq0305d3h523k41ps&#45;glibc&#45;2.20&#45;&gt;/nix/store/54whwk19x8cgak0pwnnzzq282hwaf8f3&#45;acl&#45;2.2.52</title>
<path fill="none" stroke="black" d="M315.22,-443.555C285.42,-437.358 247.906,-424.142 228,-396 215.473,-378.29 215.471,-353.271 218.031,-334.268"/>
<polygon fill="black" stroke="black" points="221.527,-334.582 219.706,-324.145 214.62,-333.44 221.527,-334.582"/>
</g>
<!-- /nix/store/f9i3xzbkx0frdqwqvy8qpk6gcclzf02f&#45;attr&#45;2.4.47 -->
<g id="node11" class="node"><title>/nix/store/f9i3xzbkx0frdqwqvy8qpk6gcclzf02f&#45;attr&#45;2.4.47</title>
<polygon fill="#ffffff" stroke="black" points="330.25,-396 237.75,-396 237.75,-360 330.25,-360 330.25,-396"/>
<text text-anchor="middle" x="284" y="-374.3" font-family="Times,serif" font-size="14.00">attr&#45;2.4.47</text>
</g>
<!-- /nix/store/nrxyygy0wqski1klq0305d3h523k41ps&#45;glibc&#45;2.20&#45;&gt;/nix/store/f9i3xzbkx0frdqwqvy8qpk6gcclzf02f&#45;attr&#45;2.4.47 -->
<g id="edge20" class="edge"><title>/nix/store/nrxyygy0wqski1klq0305d3h523k41ps&#45;glibc&#45;2.20&#45;&gt;/nix/store/f9i3xzbkx0frdqwqvy8qpk6gcclzf02f&#45;attr&#45;2.4.47</title>
<path fill="none" stroke="red" d="M340.461,-431.697C331.197,-423.05 319.838,-412.449 309.743,-403.027"/>
<polygon fill="red" stroke="red" points="312.025,-400.369 302.326,-396.104 307.249,-405.486 312.025,-400.369"/>
</g>
<!-- /nix/store/nrxyygy0wqski1klq0305d3h523k41ps&#45;glibc&#45;2.20&#45;&gt;/nix/store/python&#45;2.7.9&#45;libressl -->
<g id="edge29" class="edge"><title>/nix/store/nrxyygy0wqski1klq0305d3h523k41ps&#45;glibc&#45;2.20&#45;&gt;/nix/store/python&#45;2.7.9&#45;libressl</title>
<path fill="none" stroke="magenta" d="M402.539,-448.04C457.952,-445.17 555.208,-434.501 628,-396 705.548,-354.983 732.47,-334.243 763,-252 768.568,-237 771.944,-229.267 763,-216 753.687,-202.186 740.097,-191.971 725.155,-184.419"/>
<polygon fill="magenta" stroke="magenta" points="726.249,-181.068 715.703,-180.051 723.313,-187.423 726.249,-181.068"/>
</g>
<!-- /nix/store/nrxyygy0wqski1klq0305d3h523k41ps&#45;glibc&#45;2.20&#45;&gt;/nix/store/libressl&#45;2.0.5 -->
<g id="edge31" class="edge"><title>/nix/store/nrxyygy0wqski1klq0305d3h523k41ps&#45;glibc&#45;2.20&#45;&gt;/nix/store/libressl&#45;2.0.5</title>
<path fill="none" stroke="red" d="M402.715,-445.438C472.914,-437.217 609.885,-410.395 679,-324 692.875,-306.656 697.55,-281.602 698.941,-262.492"/>
<polygon fill="red" stroke="red" points="702.446,-262.456 699.419,-252.303 695.454,-262.128 702.446,-262.456"/>
</g>
<!-- /nix/store/nrxyygy0wqski1klq0305d3h523k41ps&#45;glibc&#45;2.20&#45;&gt;/nix/store/python&#45;2.7.9&#45;nossl -->
<g id="edge36" class="edge"><title>/nix/store/nrxyygy0wqski1klq0305d3h523k41ps&#45;glibc&#45;2.20&#45;&gt;/nix/store/python&#45;2.7.9&#45;nossl</title>
<path fill="none" stroke="black" d="M361.859,-431.966C369.877,-384.192 392.63,-248.623 402.424,-190.266"/>
<polygon fill="black" stroke="black" points="405.892,-190.748 404.095,-180.306 398.988,-189.589 405.892,-190.748"/>
</g>
<!-- /nix/store/482l1wbyrbqzy8pm0mh9psvk7f7x2qnf&#45;perl&#45;5.20.1&#45;&gt;/nix/store/8nxzd6jkgcihyx26m246ycpnpivicpak&#45;openssl&#45;1.0.1k -->
<g id="edge7" class="edge"><title>/nix/store/482l1wbyrbqzy8pm0mh9psvk7f7x2qnf&#45;perl&#45;5.20.1&#45;&gt;/nix/store/8nxzd6jkgcihyx26m246ycpnpivicpak&#45;openssl&#45;1.0.1k</title>
<path fill="none" stroke="black" d="M117.978,-143.697C118.859,-135.983 119.919,-126.712 120.901,-118.112"/>
<polygon fill="black" stroke="black" points="124.387,-118.437 122.045,-108.104 117.432,-117.642 124.387,-118.437"/>
</g>
<!-- /nix/store/p9rmkj5s68cjhjnb8msj477wcm5157rx&#45;gcc&#45;4.8.4&#45;&gt;/nix/store/482l1wbyrbqzy8pm0mh9psvk7f7x2qnf&#45;perl&#45;5.20.1 -->
<g id="edge12" class="edge"><title>/nix/store/p9rmkj5s68cjhjnb8msj477wcm5157rx&#45;gcc&#45;4.8.4&#45;&gt;/nix/store/482l1wbyrbqzy8pm0mh9psvk7f7x2qnf&#45;perl&#45;5.20.1</title>
<path fill="none" stroke="burlywood" d="M109.978,-215.697C110.859,-207.983 111.919,-198.712 112.901,-190.112"/>
<polygon fill="burlywood" stroke="burlywood" points="116.387,-190.437 114.045,-180.104 109.432,-189.642 116.387,-190.437"/>
</g>
<!-- /nix/store/54whwk19x8cgak0pwnnzzq282hwaf8f3&#45;acl&#45;2.2.52&#45;&gt;/nix/store/h4ssyq8lac0ywmn8j0lsichvj9fvcfyd&#45;coreutils&#45;8.23 -->
<g id="edge16" class="edge"><title>/nix/store/54whwk19x8cgak0pwnnzzq282hwaf8f3&#45;acl&#45;2.2.52&#45;&gt;/nix/store/h4ssyq8lac0ywmn8j0lsichvj9fvcfyd&#45;coreutils&#45;8.23</title>
<path fill="none" stroke="blue" d="M224.494,-287.697C224.715,-279.983 224.98,-270.712 225.225,-262.112"/>
<polygon fill="blue" stroke="blue" points="228.724,-262.2 225.511,-252.104 221.727,-262 228.724,-262.2"/>
</g>
<!-- /nix/store/f9i3xzbkx0frdqwqvy8qpk6gcclzf02f&#45;attr&#45;2.4.47&#45;&gt;/nix/store/54whwk19x8cgak0pwnnzzq282hwaf8f3&#45;acl&#45;2.2.52 -->
<g id="edge18" class="edge"><title>/nix/store/f9i3xzbkx0frdqwqvy8qpk6gcclzf02f&#45;attr&#45;2.4.47&#45;&gt;/nix/store/54whwk19x8cgak0pwnnzzq282hwaf8f3&#45;acl&#45;2.2.52</title>
<path fill="none" stroke="burlywood" d="M269.169,-359.697C261.975,-351.305 253.203,-341.07 245.31,-331.861"/>
<polygon fill="burlywood" stroke="burlywood" points="247.826,-329.419 238.661,-324.104 242.511,-333.975 247.826,-329.419"/>
</g>
<!-- /nix/store/jvlrfyjlm4m0jykiw33dk5kjyzmgysiw&#45;linux&#45;headers&#45;3.12.32 -->
<g id="node12" class="node"><title>/nix/store/jvlrfyjlm4m0jykiw33dk5kjyzmgysiw&#45;linux&#45;headers&#45;3.12.32</title>
<polygon fill="#ffffff" stroke="black" points="445,-540 273,-540 273,-504 445,-504 445,-540"/>
<text text-anchor="middle" x="359" y="-518.3" font-family="Times,serif" font-size="14.00">linux&#45;headers&#45;3.12.32</text>
</g>
<!-- /nix/store/jvlrfyjlm4m0jykiw33dk5kjyzmgysiw&#45;linux&#45;headers&#45;3.12.32&#45;&gt;/nix/store/nrxyygy0wqski1klq0305d3h523k41ps&#45;glibc&#45;2.20 -->
<g id="edge21" class="edge"><title>/nix/store/jvlrfyjlm4m0jykiw33dk5kjyzmgysiw&#45;linux&#45;headers&#45;3.12.32&#45;&gt;/nix/store/nrxyygy0wqski1klq0305d3h523k41ps&#45;glibc&#45;2.20</title>
<path fill="none" stroke="green" d="M359,-503.697C359,-495.983 359,-486.712 359,-478.112"/>
<polygon fill="green" stroke="green" points="362.5,-478.104 359,-468.104 355.5,-478.104 362.5,-478.104"/>
</g>
<!-- /nix/store/libressl&#45;2.0.5&#45;&gt;/nix/store/python&#45;2.7.9&#45;libressl -->
<g id="edge24" class="edge"><title>/nix/store/libressl&#45;2.0.5&#45;&gt;/nix/store/python&#45;2.7.9&#45;libressl</title>
<path fill="none" stroke="burlywood" d="M682.438,-215.697C674.325,-207.22 664.412,-196.864 655.529,-187.583"/>
<polygon fill="burlywood" stroke="burlywood" points="657.814,-184.908 648.371,-180.104 652.757,-189.749 657.814,-184.908"/>
</g>
</g>
</svg>
