<?xml version="1.0" encoding="UTF-8" standalone="no"?>
<!DOCTYPE svg PUBLIC "-//W3C//DTD SVG 1.1//EN"
 "http://www.w3.org/Graphics/SVG/1.1/DTD/svg11.dtd">
<!-- Generated by graphviz version 2.36.0 (20140111.2315)
 -->
<!-- Title: G Pages: 1 -->
<svg width="324pt" height="638pt"
 viewBox="0.00 0.00 324.00 638.00" xmlns="http://www.w3.org/2000/svg" xmlns:xlink="http://www.w3.org/1999/xlink">
<g id="graph0" class="graph" transform="scale(1 1) rotate(0) translate(4 634)">
<title>G</title>
<!-- /nix/store/l8rhnzq9yxqhv3il4kmzqhkx8q06jzgv&#45;python&#45;2.7.9 -->
<g id="node1" class="node"><title>/nix/store/l8rhnzq9yxqhv3il4kmzqhkx8q06jzgv&#45;python&#45;2.7.9</title>
<polygon fill="#00ff00" stroke="black" points="283.5,-36 176.5,-36 176.5,-0 283.5,-0 283.5,-36"/>
<text text-anchor="middle" x="230" y="-14.3" font-family="Times,serif" font-size="14.00">python&#45;2.7.9</text>
</g>
<!-- /nix/store/8nxzd6jkgcihyx26m246ycpnpivicpak&#45;openssl&#45;1.0.1k -->
<g id="node2" class="node"><title>/nix/store/8nxzd6jkgcihyx26m246ycpnpivicpak&#45;openssl&#45;1.0.1k</title>
<polygon fill="#ffffff" stroke="black" points="290,-90 170,-90 170,-54 290,-54 290,-90"/>
<text text-anchor="middle" x="230" y="-68.3" font-family="Times,serif" font-size="14.00">openssl&#45;1.0.1k</text>
</g>
<!-- /nix/store/482l1wbyrbqzy8pm0mh9psvk7f7x2qnf&#45;perl&#45;5.20.1 -->
<g id="node3" class="node"><title>/nix/store/482l1wbyrbqzy8pm0mh9psvk7f7x2qnf&#45;perl&#45;5.20.1</title>
<polygon fill="#00ff00" stroke="black" points="277.5,-144 182.5,-144 182.5,-108 277.5,-108 277.5,-144"/>
<text text-anchor="middle" x="230" y="-122.3" font-family="Times,serif" font-size="14.00">perl&#45;5.20.1</text>
</g>
<!-- /nix/store/96vfgc1gfwslmg3hhfzkxsvqqc61mh89&#45;bzip2&#45;1.0.6 -->
<g id="node4" class="node"><title>/nix/store/96vfgc1gfwslmg3hhfzkxsvqqc61mh89&#45;bzip2&#45;1.0.6</title>
<polygon fill="#ffffff" stroke="black" points="278,-198 182,-198 182,-162 278,-162 278,-198"/>
<text text-anchor="middle" x="230" y="-176.3" font-family="Times,serif" font-size="14.00">bzip2&#45;1.0.6</text>
</g>
<!-- /nix/store/a2p5i9hb5hpqssh7vp402r6n9slfayqx&#45;zlib&#45;1.2.8 -->
<g id="node5" class="node"><title>/nix/store/a2p5i9hb5hpqssh7vp402r6n9slfayqx&#45;zlib&#45;1.2.8</title>
<polygon fill="#ffffff" stroke="black" points="271.5,-252 188.5,-252 188.5,-216 271.5,-216 271.5,-252"/>
<text text-anchor="middle" x="230" y="-230.3" font-family="Times,serif" font-size="14.00">zlib&#45;1.2.8</text>
</g>
<!-- /nix/store/cxrc12hkmvrjlq747cm08av6jl41nzi1&#45;bash&#45;4.3&#45;p30 -->
<g id="node6" class="node"><title>/nix/store/cxrc12hkmvrjlq747cm08av6jl41nzi1&#45;bash&#45;4.3&#45;p30</title>
<polygon fill="#ffffff" stroke="black" points="284.5,-306 175.5,-306 175.5,-270 284.5,-270 284.5,-306"/>
<text text-anchor="middle" x="230" y="-284.3" font-family="Times,serif" font-size="14.00">bash&#45;4.3&#45;p30</text>
</g>
<!-- /nix/store/h4ssyq8lac0ywmn8j0lsichvj9fvcfyd&#45;coreutils&#45;8.23 -->
<g id="node7" class="node"><title>/nix/store/h4ssyq8lac0ywmn8j0lsichvj9fvcfyd&#45;coreutils&#45;8.23</title>
<polygon fill="#ffffff" stroke="black" points="288,-360 172,-360 172,-324 288,-324 288,-360"/>
<text text-anchor="middle" x="230" y="-338.3" font-family="Times,serif" font-size="14.00">coreutils&#45;8.23</text>
</g>
<!-- /nix/store/54whwk19x8cgak0pwnnzzq282hwaf8f3&#45;acl&#45;2.2.52 -->
<g id="node8" class="node"><title>/nix/store/54whwk19x8cgak0pwnnzzq282hwaf8f3&#45;acl&#45;2.2.52</title>
<polygon fill="#ffffff" stroke="black" points="273.5,-414 186.5,-414 186.5,-378 273.5,-378 273.5,-414"/>
<text text-anchor="middle" x="230" y="-392.3" font-family="Times,serif" font-size="14.00">acl&#45;2.2.52</text>
</g>
<!-- /nix/store/f9i3xzbkx0frdqwqvy8qpk6gcclzf02f&#45;attr&#45;2.4.47 -->
<g id="node9" class="node"><title>/nix/store/f9i3xzbkx0frdqwqvy8qpk6gcclzf02f&#45;attr&#45;2.4.47</title>
<polygon fill="#ffffff" stroke="black" points="276.5,-468 183.5,-468 183.5,-432 276.5,-432 276.5,-468"/>
<text text-anchor="middle" x="230" y="-446.3" font-family="Times,serif" font-size="14.00">attr&#45;2.4.47</text>
</g>
<!-- /nix/store/nrxyygy0wqski1klq0305d3h523k41ps&#45;glibc&#45;2.20 -->
<g id="node10" class="node"><title>/nix/store/nrxyygy0wqski1klq0305d3h523k41ps&#45;glibc&#45;2.20</title>
<polygon fill="#ffffff" stroke="black" points="274,-522 186,-522 186,-486 274,-486 274,-522"/>
<text text-anchor="middle" x="230" y="-500.3" font-family="Times,serif" font-size="14.00">glibc&#45;2.20</text>
</g>
<!-- /nix/store/jvlrfyjlm4m0jykiw33dk5kjyzmgysiw&#45;linux&#45;headers&#45;3.12.32 -->
<g id="node11" class="node"><title>/nix/store/jvlrfyjlm4m0jykiw33dk5kjyzmgysiw&#45;linux&#45;headers&#45;3.12.32</title>
<polygon fill="#ffffff" stroke="black" points="316,-576 144,-576 144,-540 316,-540 316,-576"/>
<text text-anchor="middle" x="230" y="-554.3" font-family="Times,serif" font-size="14.00">linux&#45;headers&#45;3.12.32</text>
</g>
<!-- /nix/store/p9rmkj5s68cjhjnb8msj477wcm5157rx&#45;gcc&#45;4.8.4 -->
<g id="node12" class="node"><title>/nix/store/p9rmkj5s68cjhjnb8msj477wcm5157rx&#45;gcc&#45;4.8.4</title>
<polygon fill="#ffffff" stroke="black" points="271.5,-630 188.5,-630 188.5,-594 271.5,-594 271.5,-630"/>
<text text-anchor="middle" x="230" y="-608.3" font-family="Times,serif" font-size="14.00">gcc&#45;4.8.4</text>
</g>
<!-- python&#45;2.7.9&#45;view -->
<g id="node13" class="node"><title>python&#45;2.7.9&#45;view</title>
<polygon fill="#88ff88" stroke="black" points="107.5,-36 0.5,-36 0.5,-0 107.5,-0 107.5,-36"/>
<text text-anchor="middle" x="54" y="-14.3" font-family="Times,serif" font-size="14.00">python&#45;2.7.9</text>
</g>
<!-- python&#45;2.7.9&#45;view&#45;&gt;/nix/store/l8rhnzq9yxqhv3il4kmzqhkx8q06jzgv&#45;python&#45;2.7.9 -->
<g id="edge1" class="edge"><title>python&#45;2.7.9&#45;view&#45;&gt;/nix/store/l8rhnzq9yxqhv3il4kmzqhkx8q06jzgv&#45;python&#45;2.7.9</title>
<path fill="none" stroke="green" d="M107.678,-18C126.077,-18 146.914,-18 166.064,-18"/>
<polygon fill="green" stroke="green" points="166.201,-21.5001 176.201,-18 166.201,-14.5001 166.201,-21.5001"/>
</g>
<!-- perl&#45;5.20.1&#45;view -->
<g id="node14" class="node"><title>perl&#45;5.20.1&#45;view</title>
<polygon fill="#88ff88" stroke="black" points="101.5,-144 6.5,-144 6.5,-108 101.5,-108 101.5,-144"/>
<text text-anchor="middle" x="54" y="-122.3" font-family="Times,serif" font-size="14.00">perl&#45;5.20.1</text>
</g>
<!-- perl&#45;5.20.1&#45;view&#45;&gt;/nix/store/482l1wbyrbqzy8pm0mh9psvk7f7x2qnf&#45;perl&#45;5.20.1 -->
<g id="edge2" class="edge"><title>perl&#45;5.20.1&#45;view&#45;&gt;/nix/store/482l1wbyrbqzy8pm0mh9psvk7f7x2qnf&#45;perl&#45;5.20.1</title>
<path fill="none" stroke="green" d="M101.629,-126C123.278,-126 149.213,-126 172.014,-126"/>
<polygon fill="green" stroke="green" points="172.243,-129.5 182.242,-126 172.242,-122.5 172.243,-129.5"/>
</g>
</g>
</svg>
