<?xml version="1.0" encoding="UTF-8" standalone="no"?>
<!DOCTYPE svg PUBLIC "-//W3C//DTD SVG 1.1//EN"
 "http://www.w3.org/Graphics/SVG/1.1/DTD/svg11.dtd">
<!-- Generated by graphviz version 2.36.0 (20140111.2315)
 -->
<!-- Title: G Pages: 1 -->
<svg width="692pt" height="454pt"
 viewBox="0.00 0.00 692.00 454.00" xmlns="http://www.w3.org/2000/svg" xmlns:xlink="http://www.w3.org/1999/xlink">
<g id="graph0" class="graph" transform="scale(1 1) rotate(0) translate(4 450)">
<title>G</title>
<g id="clust1" class="cluster"><title>cluster_src</title>
<polygon fill="none" stroke="black" points="8,-8 8,-438 376,-438 376,-8 8,-8"/>
</g>
<g id="clust2" class="cluster"><title>cluster_bin</title>
<polygon fill="none" stroke="black" points="396,-62 396,-384 676,-384 676,-62 396,-62"/>
</g>
<!-- /nix/store/xygg3wqnxdi8v3xhk3ks57kdsxlri2l8&#45;python&#45;2.7.9.drv -->
<g id="node1" class="node"><title>/nix/store/xygg3wqnxdi8v3xhk3ks57kdsxlri2l8&#45;python&#45;2.7.9.drv</title>
<polygon fill="#ffffff" stroke="black" points="367.5,-241 232.5,-241 232.5,-205 367.5,-205 367.5,-241"/>
<text text-anchor="middle" x="300" y="-219.3" font-family="Times,serif" font-size="14.00">python&#45;2.7.9.drv</text>
</g>
<!-- /nix/store/8nxzd6jkgcihyx26m246ycpnpivicpak&#45;openssl&#45;1.0.1k -->
<g id="node11" class="node"><title>/nix/store/8nxzd6jkgcihyx26m246ycpnpivicpak&#45;openssl&#45;1.0.1k</title>
<polygon fill="#ffffff" stroke="black" points="524,-376 404,-376 404,-340 524,-340 524,-376"/>
<text text-anchor="middle" x="464" y="-354.3" font-family="Times,serif" font-size="14.00">openssl&#45;1.0.1k</text>
</g>
<!-- /nix/store/xygg3wqnxdi8v3xhk3ks57kdsxlri2l8&#45;python&#45;2.7.9.drv&#45;&gt;/nix/store/8nxzd6jkgcihyx26m246ycpnpivicpak&#45;openssl&#45;1.0.1k -->
<!-- /nix/store/96vfgc1gfwslmg3hhfzkxsvqqc61mh89&#45;bzip2&#45;1.0.6 -->
<g id="node12" class="node"><title>/nix/store/96vfgc1gfwslmg3hhfzkxsvqqc61mh89&#45;bzip2&#45;1.0.6</title>
<polygon fill="#ffffff" stroke="black" points="512,-322 416,-322 416,-286 512,-286 512,-322"/>
<text text-anchor="middle" x="464" y="-300.3" font-family="Times,serif" font-size="14.00">bzip2&#45;1.0.6</text>
</g>
<!-- /nix/store/xygg3wqnxdi8v3xhk3ks57kdsxlri2l8&#45;python&#45;2.7.9.drv&#45;&gt;/nix/store/96vfgc1gfwslmg3hhfzkxsvqqc61mh89&#45;bzip2&#45;1.0.6 -->
<!-- /nix/store/a2p5i9hb5hpqssh7vp402r6n9slfayqx&#45;zlib&#45;1.2.8 -->
<g id="node13" class="node"><title>/nix/store/a2p5i9hb5hpqssh7vp402r6n9slfayqx&#45;zlib&#45;1.2.8</title>
<polygon fill="#ffffff" stroke="black" points="505.5,-268 422.5,-268 422.5,-232 505.5,-232 505.5,-268"/>
<text text-anchor="middle" x="464" y="-246.3" font-family="Times,serif" font-size="14.00">zlib&#45;1.2.8</text>
</g>
<!-- /nix/store/xygg3wqnxdi8v3xhk3ks57kdsxlri2l8&#45;python&#45;2.7.9.drv&#45;&gt;/nix/store/a2p5i9hb5hpqssh7vp402r6n9slfayqx&#45;zlib&#45;1.2.8 -->
<!-- /nix/store/cxrc12hkmvrjlq747cm08av6jl41nzi1&#45;bash&#45;4.3&#45;p30 -->
<g id="node14" class="node"><title>/nix/store/cxrc12hkmvrjlq747cm08av6jl41nzi1&#45;bash&#45;4.3&#45;p30</title>
<polygon fill="#ffffff" stroke="black" points="518.5,-214 409.5,-214 409.5,-178 518.5,-178 518.5,-214"/>
<text text-anchor="middle" x="464" y="-192.3" font-family="Times,serif" font-size="14.00">bash&#45;4.3&#45;p30</text>
</g>
<!-- /nix/store/xygg3wqnxdi8v3xhk3ks57kdsxlri2l8&#45;python&#45;2.7.9.drv&#45;&gt;/nix/store/cxrc12hkmvrjlq747cm08av6jl41nzi1&#45;bash&#45;4.3&#45;p30 -->
<!-- /nix/store/h4ssyq8lac0ywmn8j0lsichvj9fvcfyd&#45;coreutils&#45;8.23 -->
<g id="node15" class="node"><title>/nix/store/h4ssyq8lac0ywmn8j0lsichvj9fvcfyd&#45;coreutils&#45;8.23</title>
<polygon fill="#ffffff" stroke="black" points="522,-160 406,-160 406,-124 522,-124 522,-160"/>
<text text-anchor="middle" x="464" y="-138.3" font-family="Times,serif" font-size="14.00">coreutils&#45;8.23</text>
</g>
<!-- /nix/store/xygg3wqnxdi8v3xhk3ks57kdsxlri2l8&#45;python&#45;2.7.9.drv&#45;&gt;/nix/store/h4ssyq8lac0ywmn8j0lsichvj9fvcfyd&#45;coreutils&#45;8.23 -->
<!-- /nix/store/nrxyygy0wqski1klq0305d3h523k41ps&#45;glibc&#45;2.20 -->
<g id="node16" class="node"><title>/nix/store/nrxyygy0wqski1klq0305d3h523k41ps&#45;glibc&#45;2.20</title>
<polygon fill="#ffffff" stroke="black" points="508,-106 420,-106 420,-70 508,-70 508,-106"/>
<text text-anchor="middle" x="464" y="-84.3" font-family="Times,serif" font-size="14.00">glibc&#45;2.20</text>
</g>
<!-- /nix/store/xygg3wqnxdi8v3xhk3ks57kdsxlri2l8&#45;python&#45;2.7.9.drv&#45;&gt;/nix/store/nrxyygy0wqski1klq0305d3h523k41ps&#45;glibc&#45;2.20 -->
<!-- /nix/store/13gnii6g05c1p5ixf22la1fqwd9nbjv5&#45;bzip2&#45;1.0.6.drv -->
<g id="node2" class="node"><title>/nix/store/13gnii6g05c1p5ixf22la1fqwd9nbjv5&#45;bzip2&#45;1.0.6.drv</title>
<polygon fill="#ffffff" stroke="black" points="168.5,-430 43.5,-430 43.5,-394 168.5,-394 168.5,-430"/>
<text text-anchor="middle" x="106" y="-408.3" font-family="Times,serif" font-size="14.00">bzip2&#45;1.0.6.drv</text>
</g>
<!-- /nix/store/13gnii6g05c1p5ixf22la1fqwd9nbjv5&#45;bzip2&#45;1.0.6.drv&#45;&gt;/nix/store/xygg3wqnxdi8v3xhk3ks57kdsxlri2l8&#45;python&#45;2.7.9.drv -->
<g id="edge1" class="edge"><title>/nix/store/13gnii6g05c1p5ixf22la1fqwd9nbjv5&#45;bzip2&#45;1.0.6.drv&#45;&gt;/nix/store/xygg3wqnxdi8v3xhk3ks57kdsxlri2l8&#45;python&#45;2.7.9.drv</title>
<path fill="none" stroke="black" d="M168.669,-399.591C178.395,-395.912 187.899,-391.152 196,-385 242.581,-349.625 273.703,-286.616 288.669,-250.488"/>
<polygon fill="black" stroke="black" points="291.978,-251.64 292.461,-241.056 285.484,-249.029 291.978,-251.64"/>
</g>
<!-- /nix/store/3m5zq1f38mdk51ks25hz8pnl99hq6j5k&#45;glibc&#45;2.20.drv -->
<g id="node3" class="node"><title>/nix/store/3m5zq1f38mdk51ks25hz8pnl99hq6j5k&#45;glibc&#45;2.20.drv</title>
<polygon fill="#ffffff" stroke="black" points="164,-376 48,-376 48,-340 164,-340 164,-376"/>
<text text-anchor="middle" x="106" y="-354.3" font-family="Times,serif" font-size="14.00">glibc&#45;2.20.drv</text>
</g>
<!-- /nix/store/3m5zq1f38mdk51ks25hz8pnl99hq6j5k&#45;glibc&#45;2.20.drv&#45;&gt;/nix/store/xygg3wqnxdi8v3xhk3ks57kdsxlri2l8&#45;python&#45;2.7.9.drv -->
<g id="edge2" class="edge"><title>/nix/store/3m5zq1f38mdk51ks25hz8pnl99hq6j5k&#45;glibc&#45;2.20.drv&#45;&gt;/nix/store/xygg3wqnxdi8v3xhk3ks57kdsxlri2l8&#45;python&#45;2.7.9.drv</title>
<path fill="none" stroke="red" d="M164.433,-345.336C175.359,-341.629 186.375,-336.925 196,-331 230.737,-309.615 261.704,-273.686 280.4,-249.19"/>
<polygon fill="red" stroke="red" points="283.305,-251.151 286.488,-241.045 277.698,-246.96 283.305,-251.151"/>
</g>
<!-- /nix/store/9krlzvny65gdc8s7kpb6lkx8cd02c25b&#45;default&#45;builder.sh -->
<g id="node4" class="node"><title>/nix/store/9krlzvny65gdc8s7kpb6lkx8cd02c25b&#45;default&#45;builder.sh</title>
<polygon fill="#ffffff" stroke="black" points="177,-322 35,-322 35,-286 177,-286 177,-322"/>
<text text-anchor="middle" x="106" y="-300.3" font-family="Times,serif" font-size="14.00">default&#45;builder.sh</text>
</g>
<!-- /nix/store/9krlzvny65gdc8s7kpb6lkx8cd02c25b&#45;default&#45;builder.sh&#45;&gt;/nix/store/xygg3wqnxdi8v3xhk3ks57kdsxlri2l8&#45;python&#45;2.7.9.drv -->
<g id="edge3" class="edge"><title>/nix/store/9krlzvny65gdc8s7kpb6lkx8cd02c25b&#45;default&#45;builder.sh&#45;&gt;/nix/store/xygg3wqnxdi8v3xhk3ks57kdsxlri2l8&#45;python&#45;2.7.9.drv</title>
<path fill="none" stroke="green" d="M171.673,-285.952C179.945,-283.186 188.23,-280.182 196,-277 217.516,-268.188 240.517,-256.377 259.313,-246.048"/>
<polygon fill="green" stroke="green" points="261.14,-249.037 268.177,-241.117 257.737,-242.92 261.14,-249.037"/>
</g>
<!-- /nix/store/dvwxmfrlm8ffcy3yp0q6p96cy9h30h1w&#45;stdenv.drv -->
<g id="node5" class="node"><title>/nix/store/dvwxmfrlm8ffcy3yp0q6p96cy9h30h1w&#45;stdenv.drv</title>
<polygon fill="#ffffff" stroke="black" points="152,-268 60,-268 60,-232 152,-232 152,-268"/>
<text text-anchor="middle" x="106" y="-246.3" font-family="Times,serif" font-size="14.00">stdenv.drv</text>
</g>
<!-- /nix/store/dvwxmfrlm8ffcy3yp0q6p96cy9h30h1w&#45;stdenv.drv&#45;&gt;/nix/store/xygg3wqnxdi8v3xhk3ks57kdsxlri2l8&#45;python&#45;2.7.9.drv -->
<g id="edge4" class="edge"><title>/nix/store/dvwxmfrlm8ffcy3yp0q6p96cy9h30h1w&#45;stdenv.drv&#45;&gt;/nix/store/xygg3wqnxdi8v3xhk3ks57kdsxlri2l8&#45;python&#45;2.7.9.drv</title>
<path fill="none" stroke="burlywood" d="M152.015,-243.67C172.964,-240.724 198.475,-237.136 222.327,-233.782"/>
<polygon fill="burlywood" stroke="burlywood" points="223.013,-237.22 232.429,-232.362 222.039,-230.288 223.013,-237.22"/>
</g>
<!-- /nix/store/gxyihp1gmhxd70b5fccgzw32gbx5zw1r&#45;bash&#45;4.3&#45;p30.drv -->
<g id="node6" class="node"><title>/nix/store/gxyihp1gmhxd70b5fccgzw32gbx5zw1r&#45;bash&#45;4.3&#45;p30.drv</title>
<polygon fill="#ffffff" stroke="black" points="174.5,-214 37.5,-214 37.5,-178 174.5,-178 174.5,-214"/>
<text text-anchor="middle" x="106" y="-192.3" font-family="Times,serif" font-size="14.00">bash&#45;4.3&#45;p30.drv</text>
</g>
<!-- /nix/store/gxyihp1gmhxd70b5fccgzw32gbx5zw1r&#45;bash&#45;4.3&#45;p30.drv&#45;&gt;/nix/store/xygg3wqnxdi8v3xhk3ks57kdsxlri2l8&#45;python&#45;2.7.9.drv -->
<g id="edge5" class="edge"><title>/nix/store/gxyihp1gmhxd70b5fccgzw32gbx5zw1r&#45;bash&#45;4.3&#45;p30.drv&#45;&gt;/nix/store/xygg3wqnxdi8v3xhk3ks57kdsxlri2l8&#45;python&#45;2.7.9.drv</title>
<path fill="none" stroke="red" d="M174.692,-205.519C190.014,-207.674 206.392,-209.977 222.064,-212.181"/>
<polygon fill="red" stroke="red" points="221.852,-215.685 232.242,-213.612 222.827,-208.754 221.852,-215.685"/>
</g>
<!-- /nix/store/jwimr2d5xlbhicl42k9qvyqggcacqk66&#45;zlib&#45;1.2.8.drv -->
<g id="node7" class="node"><title>/nix/store/jwimr2d5xlbhicl42k9qvyqggcacqk66&#45;zlib&#45;1.2.8.drv</title>
<polygon fill="#ffffff" stroke="black" points="161.5,-160 50.5,-160 50.5,-124 161.5,-124 161.5,-160"/>
<text text-anchor="middle" x="106" y="-138.3" font-family="Times,serif" font-size="14.00">zlib&#45;1.2.8.drv</text>
</g>
<!-- /nix/store/jwimr2d5xlbhicl42k9qvyqggcacqk66&#45;zlib&#45;1.2.8.drv&#45;&gt;/nix/store/xygg3wqnxdi8v3xhk3ks57kdsxlri2l8&#45;python&#45;2.7.9.drv -->
<g id="edge6" class="edge"><title>/nix/store/jwimr2d5xlbhicl42k9qvyqggcacqk66&#45;zlib&#45;1.2.8.drv&#45;&gt;/nix/store/xygg3wqnxdi8v3xhk3ks57kdsxlri2l8&#45;python&#45;2.7.9.drv</title>
<path fill="none" stroke="green" d="M161.695,-156.817C173.168,-160.418 185.092,-164.533 196,-169 217.516,-177.812 240.517,-189.623 259.313,-199.952"/>
<polygon fill="green" stroke="green" points="257.737,-203.08 268.177,-204.883 261.14,-196.963 257.737,-203.08"/>
</g>
<!-- /nix/store/lv2cxjhwxfs2srl1gl1bfx3wcyyqxgnh&#45;Python&#45;2.7.9.tar.xz.drv -->
<g id="node8" class="node"><title>/nix/store/lv2cxjhwxfs2srl1gl1bfx3wcyyqxgnh&#45;Python&#45;2.7.9.tar.xz.drv</title>
<polygon fill="#ffffff" stroke="black" points="196,-106 16,-106 16,-70 196,-70 196,-106"/>
<text text-anchor="middle" x="106" y="-84.3" font-family="Times,serif" font-size="14.00">Python&#45;2.7.9.tar.xz.drv</text>
</g>
<!-- /nix/store/lv2cxjhwxfs2srl1gl1bfx3wcyyqxgnh&#45;Python&#45;2.7.9.tar.xz.drv&#45;&gt;/nix/store/xygg3wqnxdi8v3xhk3ks57kdsxlri2l8&#45;python&#45;2.7.9.drv -->
<g id="edge7" class="edge"><title>/nix/store/lv2cxjhwxfs2srl1gl1bfx3wcyyqxgnh&#45;Python&#45;2.7.9.tar.xz.drv&#45;&gt;/nix/store/xygg3wqnxdi8v3xhk3ks57kdsxlri2l8&#45;python&#45;2.7.9.drv</title>
<path fill="none" stroke="blue" d="M178.873,-106.195C184.843,-108.777 190.637,-111.699 196,-115 230.737,-136.385 261.704,-172.314 280.4,-196.81"/>
<polygon fill="blue" stroke="blue" points="277.698,-199.04 286.488,-204.955 283.305,-194.849 277.698,-199.04"/>
</g>
<!-- /nix/store/y3yhyfzcwxdsczh0nics4dfgbqs8p21s&#45;openssl&#45;1.0.1k.drv -->
<g id="node9" class="node"><title>/nix/store/y3yhyfzcwxdsczh0nics4dfgbqs8p21s&#45;openssl&#45;1.0.1k.drv</title>
<polygon fill="#ffffff" stroke="black" points="180.5,-52 31.5,-52 31.5,-16 180.5,-16 180.5,-52"/>
<text text-anchor="middle" x="106" y="-30.3" font-family="Times,serif" font-size="14.00">openssl&#45;1.0.1k.drv</text>
</g>
<!-- /nix/store/y3yhyfzcwxdsczh0nics4dfgbqs8p21s&#45;openssl&#45;1.0.1k.drv&#45;&gt;/nix/store/xygg3wqnxdi8v3xhk3ks57kdsxlri2l8&#45;python&#45;2.7.9.drv -->
<g id="edge8" class="edge"><title>/nix/store/y3yhyfzcwxdsczh0nics4dfgbqs8p21s&#45;openssl&#45;1.0.1k.drv&#45;&gt;/nix/store/xygg3wqnxdi8v3xhk3ks57kdsxlri2l8&#45;python&#45;2.7.9.drv</title>
<path fill="none" stroke="burlywood" d="M180.514,-51.5382C186.001,-54.254 191.242,-57.3868 196,-61 242.581,-96.3751 273.703,-159.384 288.669,-195.512"/>
<polygon fill="burlywood" stroke="burlywood" points="285.484,-196.971 292.461,-204.944 291.978,-194.36 285.484,-196.971"/>
</g>
<!-- /nix/store/l8rhnzq9yxqhv3il4kmzqhkx8q06jzgv&#45;python&#45;2.7.9 -->
<g id="node10" class="node"><title>/nix/store/l8rhnzq9yxqhv3il4kmzqhkx8q06jzgv&#45;python&#45;2.7.9</title>
<polygon fill="#ffffff" stroke="black" points="667.5,-241 560.5,-241 560.5,-205 667.5,-205 667.5,-241"/>
<text text-anchor="middle" x="614" y="-219.3" font-family="Times,serif" font-size="14.00">python&#45;2.7.9</text>
</g>
<!-- /nix/store/8nxzd6jkgcihyx26m246ycpnpivicpak&#45;openssl&#45;1.0.1k&#45;&gt;/nix/store/l8rhnzq9yxqhv3il4kmzqhkx8q06jzgv&#45;python&#45;2.7.9 -->
<g id="edge9" class="edge"><title>/nix/store/8nxzd6jkgcihyx26m246ycpnpivicpak&#45;openssl&#45;1.0.1k&#45;&gt;/nix/store/l8rhnzq9yxqhv3il4kmzqhkx8q06jzgv&#45;python&#45;2.7.9</title>
<path fill="none" stroke="black" d="M510.371,-339.848C515.158,-337.179 519.802,-334.227 524,-331 553.72,-308.154 579.944,-273.617 596.091,-249.779"/>
<polygon fill="black" stroke="black" points="599.161,-251.482 601.772,-241.213 593.328,-247.612 599.161,-251.482"/>
</g>
<!-- /nix/store/96vfgc1gfwslmg3hhfzkxsvqqc61mh89&#45;bzip2&#45;1.0.6&#45;&gt;/nix/store/l8rhnzq9yxqhv3il4kmzqhkx8q06jzgv&#45;python&#45;2.7.9 -->
<g id="edge10" class="edge"><title>/nix/store/96vfgc1gfwslmg3hhfzkxsvqqc61mh89&#45;bzip2&#45;1.0.6&#45;&gt;/nix/store/l8rhnzq9yxqhv3il4kmzqhkx8q06jzgv&#45;python&#45;2.7.9</title>
<path fill="none" stroke="red" d="M506.243,-285.869C512.254,-283.012 518.326,-280.006 524,-277 541.651,-267.647 560.652,-256.304 576.545,-246.433"/>
<polygon fill="red" stroke="red" points="578.409,-249.395 585.027,-241.122 574.694,-243.462 578.409,-249.395"/>
</g>
<!-- /nix/store/a2p5i9hb5hpqssh7vp402r6n9slfayqx&#45;zlib&#45;1.2.8&#45;&gt;/nix/store/l8rhnzq9yxqhv3il4kmzqhkx8q06jzgv&#45;python&#45;2.7.9 -->
<g id="edge11" class="edge"><title>/nix/store/a2p5i9hb5hpqssh7vp402r6n9slfayqx&#45;zlib&#45;1.2.8&#45;&gt;/nix/store/l8rhnzq9yxqhv3il4kmzqhkx8q06jzgv&#45;python&#45;2.7.9</title>
<path fill="none" stroke="green" d="M505.833,-242.551C519.529,-240.052 535.134,-237.205 550.118,-234.472"/>
<polygon fill="green" stroke="green" points="551.151,-237.841 560.361,-232.603 549.895,-230.955 551.151,-237.841"/>
</g>
<!-- /nix/store/cxrc12hkmvrjlq747cm08av6jl41nzi1&#45;bash&#45;4.3&#45;p30&#45;&gt;/nix/store/l8rhnzq9yxqhv3il4kmzqhkx8q06jzgv&#45;python&#45;2.7.9 -->
<g id="edge12" class="edge"><title>/nix/store/cxrc12hkmvrjlq747cm08av6jl41nzi1&#45;bash&#45;4.3&#45;p30&#45;&gt;/nix/store/l8rhnzq9yxqhv3il4kmzqhkx8q06jzgv&#45;python&#45;2.7.9</title>
<path fill="none" stroke="blue" d="M518.85,-205.824C529.122,-207.698 539.954,-209.674 550.47,-211.593"/>
<polygon fill="blue" stroke="blue" points="549.961,-215.057 560.427,-213.409 551.217,-208.171 549.961,-215.057"/>
</g>
<!-- /nix/store/h4ssyq8lac0ywmn8j0lsichvj9fvcfyd&#45;coreutils&#45;8.23&#45;&gt;/nix/store/l8rhnzq9yxqhv3il4kmzqhkx8q06jzgv&#45;python&#45;2.7.9 -->
<g id="edge13" class="edge"><title>/nix/store/h4ssyq8lac0ywmn8j0lsichvj9fvcfyd&#45;coreutils&#45;8.23&#45;&gt;/nix/store/l8rhnzq9yxqhv3il4kmzqhkx8q06jzgv&#45;python&#45;2.7.9</title>
<path fill="none" stroke="magenta" d="M506.243,-160.131C512.254,-162.988 518.326,-165.994 524,-169 541.651,-178.353 560.652,-189.696 576.545,-199.567"/>
<polygon fill="magenta" stroke="magenta" points="574.694,-202.538 585.027,-204.878 578.409,-196.605 574.694,-202.538"/>
</g>
<!-- /nix/store/nrxyygy0wqski1klq0305d3h523k41ps&#45;glibc&#45;2.20&#45;&gt;/nix/store/l8rhnzq9yxqhv3il4kmzqhkx8q06jzgv&#45;python&#45;2.7.9 -->
<g id="edge14" class="edge"><title>/nix/store/nrxyygy0wqski1klq0305d3h523k41ps&#45;glibc&#45;2.20&#45;&gt;/nix/store/l8rhnzq9yxqhv3il4kmzqhkx8q06jzgv&#45;python&#45;2.7.9</title>
<path fill="none" stroke="burlywood" d="M508.224,-104.978C513.764,-107.948 519.177,-111.293 524,-115 553.72,-137.846 579.944,-172.383 596.091,-196.221"/>
<polygon fill="burlywood" stroke="burlywood" points="593.328,-198.388 601.772,-204.787 599.161,-194.518 593.328,-198.388"/>
</g>
</g>
</svg>
