<?xml version="1.0" encoding="UTF-8" standalone="no"?>
<!DOCTYPE svg PUBLIC "-//W3C//DTD SVG 1.1//EN"
 "http://www.w3.org/Graphics/SVG/1.1/DTD/svg11.dtd">
<!-- Generated by graphviz version 2.36.0 (20140111.2315)
 -->
<!-- Title: G Pages: 1 -->
<svg width="571pt" height="548pt"
 viewBox="0.00 0.00 570.71 548.00" xmlns="http://www.w3.org/2000/svg" xmlns:xlink="http://www.w3.org/1999/xlink">
<g id="graph0" class="graph" transform="scale(1 1) rotate(0) translate(4 544)">
<title>G</title>
<!-- /nix/store/l8rhnzq9yxqhv3il4kmzqhkx8q06jzgv&#45;python&#45;2.7.9 -->
<g id="node1" class="node"><title>/nix/store/l8rhnzq9yxqhv3il4kmzqhkx8q06jzgv&#45;python&#45;2.7.9</title>
<polygon fill="#00ff00" stroke="black" points="495.963,-36 389.463,-36 389.463,-0 495.963,-0 495.963,-36"/>
<text text-anchor="middle" x="442.713" y="-14.3" font-family="Times,serif" font-size="14.00">python&#45;2.7.9</text>
</g>
<!-- /nix/store/8nxzd6jkgcihyx26m246ycpnpivicpak&#45;openssl&#45;1.0.1k -->
<g id="node2" class="node"><title>/nix/store/8nxzd6jkgcihyx26m246ycpnpivicpak&#45;openssl&#45;1.0.1k</title>
<polygon fill="#ffffff" stroke="black" points="458.213,-108 339.213,-108 339.213,-72 458.213,-72 458.213,-108"/>
<text text-anchor="middle" x="398.713" y="-86.3" font-family="Times,serif" font-size="14.00">openssl&#45;1.0.1k</text>
</g>
<!-- /nix/store/8nxzd6jkgcihyx26m246ycpnpivicpak&#45;openssl&#45;1.0.1k&#45;&gt;/nix/store/l8rhnzq9yxqhv3il4kmzqhkx8q06jzgv&#45;python&#45;2.7.9 -->
<g id="edge1" class="edge"><title>/nix/store/8nxzd6jkgcihyx26m246ycpnpivicpak&#45;openssl&#45;1.0.1k&#45;&gt;/nix/store/l8rhnzq9yxqhv3il4kmzqhkx8q06jzgv&#45;python&#45;2.7.9</title>
<path fill="none" stroke="black" d="M409.589,-71.6966C414.704,-63.5589 420.908,-53.689 426.558,-44.7013"/>
<polygon fill="black" stroke="black" points="429.603,-46.4333 431.961,-36.1043 423.676,-42.7081 429.603,-46.4333"/>
</g>
<!-- /nix/store/96vfgc1gfwslmg3hhfzkxsvqqc61mh89&#45;bzip2&#45;1.0.6 -->
<g id="node3" class="node"><title>/nix/store/96vfgc1gfwslmg3hhfzkxsvqqc61mh89&#45;bzip2&#45;1.0.6</title>
<polygon fill="#ffffff" stroke="black" points="531.713,-252 435.713,-252 435.713,-216 531.713,-216 531.713,-252"/>
<text text-anchor="middle" x="483.713" y="-230.3" font-family="Times,serif" font-size="14.00">bzip2&#45;1.0.6</text>
</g>
<!-- /nix/store/96vfgc1gfwslmg3hhfzkxsvqqc61mh89&#45;bzip2&#45;1.0.6&#45;&gt;/nix/store/l8rhnzq9yxqhv3il4kmzqhkx8q06jzgv&#45;python&#45;2.7.9 -->
<g id="edge2" class="edge"><title>/nix/store/96vfgc1gfwslmg3hhfzkxsvqqc61mh89&#45;bzip2&#45;1.0.6&#45;&gt;/nix/store/l8rhnzq9yxqhv3il4kmzqhkx8q06jzgv&#45;python&#45;2.7.9</title>
<path fill="none" stroke="red" d="M492.431,-215.833C497.087,-205.694 502.337,-192.444 504.713,-180 507.713,-164.284 507.076,-159.824 504.713,-144 499.77,-110.907 497.912,-101.809 482.713,-72 477.764,-62.295 471.019,-52.533 464.477,-44.0785"/>
<polygon fill="red" stroke="red" points="467.068,-41.7154 458.077,-36.1104 461.61,-46.0988 467.068,-41.7154"/>
</g>
<!-- /nix/store/a2p5i9hb5hpqssh7vp402r6n9slfayqx&#45;zlib&#45;1.2.8 -->
<g id="node4" class="node"><title>/nix/store/a2p5i9hb5hpqssh7vp402r6n9slfayqx&#45;zlib&#45;1.2.8</title>
<polygon fill="#ffffff" stroke="black" points="329.963,-396 247.463,-396 247.463,-360 329.963,-360 329.963,-396"/>
<text text-anchor="middle" x="288.713" y="-374.3" font-family="Times,serif" font-size="14.00">zlib&#45;1.2.8</text>
</g>
<!-- /nix/store/a2p5i9hb5hpqssh7vp402r6n9slfayqx&#45;zlib&#45;1.2.8&#45;&gt;/nix/store/l8rhnzq9yxqhv3il4kmzqhkx8q06jzgv&#45;python&#45;2.7.9 -->
<g id="edge3" class="edge"><title>/nix/store/a2p5i9hb5hpqssh7vp402r6n9slfayqx&#45;zlib&#45;1.2.8&#45;&gt;/nix/store/l8rhnzq9yxqhv3il4kmzqhkx8q06jzgv&#45;python&#45;2.7.9</title>
<path fill="none" stroke="green" d="M291.001,-359.774C299.552,-295.42 329.172,-72.737 329.713,-72 341.993,-55.2602 360.91,-43.6266 379.775,-35.622"/>
<polygon fill="green" stroke="green" points="381.28,-38.7911 389.301,-31.8685 378.714,-32.2785 381.28,-38.7911"/>
</g>
<!-- /nix/store/p9rmkj5s68cjhjnb8msj477wcm5157rx&#45;gcc&#45;4.8.4 -->
<g id="node9" class="node"><title>/nix/store/p9rmkj5s68cjhjnb8msj477wcm5157rx&#45;gcc&#45;4.8.4</title>
<polygon fill="#ffffff" stroke="black" points="286.963,-324 204.463,-324 204.463,-288 286.963,-288 286.963,-324"/>
<text text-anchor="middle" x="245.713" y="-302.3" font-family="Times,serif" font-size="14.00">gcc&#45;4.8.4</text>
</g>
<!-- /nix/store/a2p5i9hb5hpqssh7vp402r6n9slfayqx&#45;zlib&#45;1.2.8&#45;&gt;/nix/store/p9rmkj5s68cjhjnb8msj477wcm5157rx&#45;gcc&#45;4.8.4 -->
<g id="edge22" class="edge"><title>/nix/store/a2p5i9hb5hpqssh7vp402r6n9slfayqx&#45;zlib&#45;1.2.8&#45;&gt;/nix/store/p9rmkj5s68cjhjnb8msj477wcm5157rx&#45;gcc&#45;4.8.4</title>
<path fill="none" stroke="blue" d="M278.084,-359.697C273.085,-351.559 267.022,-341.689 261.501,-332.701"/>
<polygon fill="blue" stroke="blue" points="264.436,-330.793 256.22,-324.104 258.472,-334.457 264.436,-330.793"/>
</g>
<!-- /nix/store/cxrc12hkmvrjlq747cm08av6jl41nzi1&#45;bash&#45;4.3&#45;p30 -->
<g id="node5" class="node"><title>/nix/store/cxrc12hkmvrjlq747cm08av6jl41nzi1&#45;bash&#45;4.3&#45;p30</title>
<polygon fill="#ffffff" stroke="black" points="495.963,-180 387.463,-180 387.463,-144 495.963,-144 495.963,-180"/>
<text text-anchor="middle" x="441.713" y="-158.3" font-family="Times,serif" font-size="14.00">bash&#45;4.3&#45;p30</text>
</g>
<!-- /nix/store/cxrc12hkmvrjlq747cm08av6jl41nzi1&#45;bash&#45;4.3&#45;p30&#45;&gt;/nix/store/l8rhnzq9yxqhv3il4kmzqhkx8q06jzgv&#45;python&#45;2.7.9 -->
<g id="edge4" class="edge"><title>/nix/store/cxrc12hkmvrjlq747cm08av6jl41nzi1&#45;bash&#45;4.3&#45;p30&#45;&gt;/nix/store/l8rhnzq9yxqhv3il4kmzqhkx8q06jzgv&#45;python&#45;2.7.9</title>
<path fill="none" stroke="blue" d="M452.338,-143.556C457.811,-133.543 463.911,-120.509 466.713,-108 470.21,-92.387 470.089,-87.6398 466.713,-72 464.752,-62.9165 461.101,-53.5168 457.228,-45.2013"/>
<polygon fill="blue" stroke="blue" points="460.251,-43.4197 452.667,-36.0215 453.982,-46.5344 460.251,-43.4197"/>
</g>
<!-- /nix/store/cxrc12hkmvrjlq747cm08av6jl41nzi1&#45;bash&#45;4.3&#45;p30&#45;&gt;/nix/store/8nxzd6jkgcihyx26m246ycpnpivicpak&#45;openssl&#45;1.0.1k -->
<g id="edge8" class="edge"><title>/nix/store/cxrc12hkmvrjlq747cm08av6jl41nzi1&#45;bash&#45;4.3&#45;p30&#45;&gt;/nix/store/8nxzd6jkgcihyx26m246ycpnpivicpak&#45;openssl&#45;1.0.1k</title>
<path fill="none" stroke="red" d="M431.084,-143.697C426.085,-135.559 420.022,-125.689 414.501,-116.701"/>
<polygon fill="red" stroke="red" points="417.436,-114.793 409.22,-108.104 411.472,-118.457 417.436,-114.793"/>
</g>
<!-- /nix/store/h4ssyq8lac0ywmn8j0lsichvj9fvcfyd&#45;coreutils&#45;8.23 -->
<g id="node6" class="node"><title>/nix/store/h4ssyq8lac0ywmn8j0lsichvj9fvcfyd&#45;coreutils&#45;8.23</title>
<polygon fill="#ffffff" stroke="black" points="147.213,-252 32.2128,-252 32.2128,-216 147.213,-216 147.213,-252"/>
<text text-anchor="middle" x="89.7128" y="-230.3" font-family="Times,serif" font-size="14.00">coreutils&#45;8.23</text>
</g>
<!-- /nix/store/h4ssyq8lac0ywmn8j0lsichvj9fvcfyd&#45;coreutils&#45;8.23&#45;&gt;/nix/store/l8rhnzq9yxqhv3il4kmzqhkx8q06jzgv&#45;python&#45;2.7.9 -->
<g id="edge5" class="edge"><title>/nix/store/h4ssyq8lac0ywmn8j0lsichvj9fvcfyd&#45;coreutils&#45;8.23&#45;&gt;/nix/store/l8rhnzq9yxqhv3il4kmzqhkx8q06jzgv&#45;python&#45;2.7.9</title>
<path fill="none" stroke="magenta" d="M87.173,-215.778C83.3736,-182.772 80.3924,-110.481 119.713,-72 155.581,-36.8975 295.721,-25.0033 379.168,-21.0021"/>
<polygon fill="magenta" stroke="magenta" points="379.471,-24.492 389.302,-20.5415 379.153,-17.4992 379.471,-24.492"/>
</g>
<!-- /nix/store/482l1wbyrbqzy8pm0mh9psvk7f7x2qnf&#45;perl&#45;5.20.1 -->
<g id="node8" class="node"><title>/nix/store/482l1wbyrbqzy8pm0mh9psvk7f7x2qnf&#45;perl&#45;5.20.1</title>
<polygon fill="#ffffff" stroke="black" points="250.963,-180 156.463,-180 156.463,-144 250.963,-144 250.963,-180"/>
<text text-anchor="middle" x="203.713" y="-158.3" font-family="Times,serif" font-size="14.00">perl&#45;5.20.1</text>
</g>
<!-- /nix/store/h4ssyq8lac0ywmn8j0lsichvj9fvcfyd&#45;coreutils&#45;8.23&#45;&gt;/nix/store/482l1wbyrbqzy8pm0mh9psvk7f7x2qnf&#45;perl&#45;5.20.1 -->
<g id="edge10" class="edge"><title>/nix/store/h4ssyq8lac0ywmn8j0lsichvj9fvcfyd&#45;coreutils&#45;8.23&#45;&gt;/nix/store/482l1wbyrbqzy8pm0mh9psvk7f7x2qnf&#45;perl&#45;5.20.1</title>
<path fill="none" stroke="blue" d="M117.6,-215.876C132.506,-206.724 151.042,-195.342 167.094,-185.485"/>
<polygon fill="blue" stroke="blue" points="169.028,-188.405 175.718,-180.19 165.365,-182.44 169.028,-188.405"/>
</g>
<!-- /nix/store/nrxyygy0wqski1klq0305d3h523k41ps&#45;glibc&#45;2.20 -->
<g id="node7" class="node"><title>/nix/store/nrxyygy0wqski1klq0305d3h523k41ps&#45;glibc&#45;2.20</title>
<polygon fill="#ffffff" stroke="black" points="297.213,-468 210.213,-468 210.213,-432 297.213,-432 297.213,-468"/>
<text text-anchor="middle" x="253.713" y="-446.3" font-family="Times,serif" font-size="14.00">glibc&#45;2.20</text>
</g>
<!-- /nix/store/nrxyygy0wqski1klq0305d3h523k41ps&#45;glibc&#45;2.20&#45;&gt;/nix/store/l8rhnzq9yxqhv3il4kmzqhkx8q06jzgv&#45;python&#45;2.7.9 -->
<g id="edge6" class="edge"><title>/nix/store/nrxyygy0wqski1klq0305d3h523k41ps&#45;glibc&#45;2.20&#45;&gt;/nix/store/l8rhnzq9yxqhv3il4kmzqhkx8q06jzgv&#45;python&#45;2.7.9</title>
<path fill="none" stroke="burlywood" d="M297.33,-448.295C382.506,-444.368 562.713,-422.422 562.713,-307 562.713,-307 562.713,-307 562.713,-161 562.713,-109.226 515.599,-66.5831 480.414,-41.9554"/>
<polygon fill="burlywood" stroke="burlywood" points="482.002,-38.8036 471.761,-36.0877 478.073,-44.5971 482.002,-38.8036"/>
</g>
<!-- /nix/store/nrxyygy0wqski1klq0305d3h523k41ps&#45;glibc&#45;2.20&#45;&gt;/nix/store/8nxzd6jkgcihyx26m246ycpnpivicpak&#45;openssl&#45;1.0.1k -->
<g id="edge9" class="edge"><title>/nix/store/nrxyygy0wqski1klq0305d3h523k41ps&#45;glibc&#45;2.20&#45;&gt;/nix/store/8nxzd6jkgcihyx26m246ycpnpivicpak&#45;openssl&#45;1.0.1k</title>
<path fill="none" stroke="green" d="M294.755,-431.935C310.705,-423.362 327.743,-411.459 338.713,-396 362.175,-362.937 358.713,-347.542 358.713,-307 358.713,-307 358.713,-307 358.713,-233 358.713,-191.484 374.749,-145.612 386.515,-117.545"/>
<polygon fill="green" stroke="green" points="389.863,-118.619 390.618,-108.051 383.438,-115.842 389.863,-118.619"/>
</g>
<!-- /nix/store/nrxyygy0wqski1klq0305d3h523k41ps&#45;glibc&#45;2.20&#45;&gt;/nix/store/96vfgc1gfwslmg3hhfzkxsvqqc61mh89&#45;bzip2&#45;1.0.6 -->
<g id="edge13" class="edge"><title>/nix/store/nrxyygy0wqski1klq0305d3h523k41ps&#45;glibc&#45;2.20&#45;&gt;/nix/store/96vfgc1gfwslmg3hhfzkxsvqqc61mh89&#45;bzip2&#45;1.0.6</title>
<path fill="none" stroke="black" d="M297.284,-444.549C332.823,-438.809 382.283,-425.728 414.713,-396 453.921,-360.058 471.762,-298.074 479.131,-262.412"/>
<polygon fill="black" stroke="black" points="482.634,-262.729 481.094,-252.247 475.761,-261.402 482.634,-262.729"/>
</g>
<!-- /nix/store/nrxyygy0wqski1klq0305d3h523k41ps&#45;glibc&#45;2.20&#45;&gt;/nix/store/a2p5i9hb5hpqssh7vp402r6n9slfayqx&#45;zlib&#45;1.2.8 -->
<g id="edge14" class="edge"><title>/nix/store/nrxyygy0wqski1klq0305d3h523k41ps&#45;glibc&#45;2.20&#45;&gt;/nix/store/a2p5i9hb5hpqssh7vp402r6n9slfayqx&#45;zlib&#45;1.2.8</title>
<path fill="none" stroke="red" d="M262.364,-431.697C266.349,-423.728 271.163,-414.1 275.581,-405.264"/>
<polygon fill="red" stroke="red" points="278.819,-406.614 280.161,-396.104 272.558,-403.483 278.819,-406.614"/>
</g>
<!-- /nix/store/nrxyygy0wqski1klq0305d3h523k41ps&#45;glibc&#45;2.20&#45;&gt;/nix/store/cxrc12hkmvrjlq747cm08av6jl41nzi1&#45;bash&#45;4.3&#45;p30 -->
<g id="edge15" class="edge"><title>/nix/store/nrxyygy0wqski1klq0305d3h523k41ps&#45;glibc&#45;2.20&#45;&gt;/nix/store/cxrc12hkmvrjlq747cm08av6jl41nzi1&#45;bash&#45;4.3&#45;p30</title>
<path fill="none" stroke="green" d="M297.441,-439.276C322.712,-431.531 353.255,-418.192 372.713,-396 376.213,-392.008 416.892,-250.155 434.101,-189.774"/>
<polygon fill="green" stroke="green" points="437.467,-190.732 436.84,-180.155 430.735,-188.814 437.467,-190.732"/>
</g>
<!-- /nix/store/nrxyygy0wqski1klq0305d3h523k41ps&#45;glibc&#45;2.20&#45;&gt;/nix/store/h4ssyq8lac0ywmn8j0lsichvj9fvcfyd&#45;coreutils&#45;8.23 -->
<g id="edge17" class="edge"><title>/nix/store/nrxyygy0wqski1klq0305d3h523k41ps&#45;glibc&#45;2.20&#45;&gt;/nix/store/h4ssyq8lac0ywmn8j0lsichvj9fvcfyd&#45;coreutils&#45;8.23</title>
<path fill="none" stroke="magenta" d="M210.114,-445.85C147.291,-440.301 36.1486,-426.367 11.7128,-396 -22.7724,-353.145 27.7892,-292.529 62.2287,-259.238"/>
<polygon fill="magenta" stroke="magenta" points="64.8472,-261.579 69.7223,-252.173 60.0452,-256.486 64.8472,-261.579"/>
</g>
<!-- /nix/store/nrxyygy0wqski1klq0305d3h523k41ps&#45;glibc&#45;2.20&#45;&gt;/nix/store/482l1wbyrbqzy8pm0mh9psvk7f7x2qnf&#45;perl&#45;5.20.1 -->
<g id="edge11" class="edge"><title>/nix/store/nrxyygy0wqski1klq0305d3h523k41ps&#45;glibc&#45;2.20&#45;&gt;/nix/store/482l1wbyrbqzy8pm0mh9psvk7f7x2qnf&#45;perl&#45;5.20.1</title>
<path fill="none" stroke="magenta" d="M242.489,-431.684C228.096,-408.344 203.898,-364.979 194.713,-324 184.371,-277.86 191.594,-222.518 197.705,-190.203"/>
<polygon fill="magenta" stroke="magenta" points="201.182,-190.665 199.709,-180.173 194.318,-189.294 201.182,-190.665"/>
</g>
<!-- /nix/store/nrxyygy0wqski1klq0305d3h523k41ps&#45;glibc&#45;2.20&#45;&gt;/nix/store/p9rmkj5s68cjhjnb8msj477wcm5157rx&#45;gcc&#45;4.8.4 -->
<g id="edge23" class="edge"><title>/nix/store/nrxyygy0wqski1klq0305d3h523k41ps&#45;glibc&#45;2.20&#45;&gt;/nix/store/p9rmkj5s68cjhjnb8msj477wcm5157rx&#45;gcc&#45;4.8.4</title>
<path fill="none" stroke="magenta" d="M247.061,-431.628C243.51,-421.421 239.51,-408.171 237.713,-396 234.673,-375.411 237.016,-351.959 239.935,-334.3"/>
<polygon fill="magenta" stroke="magenta" points="243.439,-334.595 241.784,-324.13 236.552,-333.343 243.439,-334.595"/>
</g>
<!-- /nix/store/54whwk19x8cgak0pwnnzzq282hwaf8f3&#45;acl&#45;2.2.52 -->
<g id="node10" class="node"><title>/nix/store/54whwk19x8cgak0pwnnzzq282hwaf8f3&#45;acl&#45;2.2.52</title>
<polygon fill="#ffffff" stroke="black" points="132.963,-324 46.4628,-324 46.4628,-288 132.963,-288 132.963,-324"/>
<text text-anchor="middle" x="89.7128" y="-302.3" font-family="Times,serif" font-size="14.00">acl&#45;2.2.52</text>
</g>
<!-- /nix/store/nrxyygy0wqski1klq0305d3h523k41ps&#45;glibc&#45;2.20&#45;&gt;/nix/store/54whwk19x8cgak0pwnnzzq282hwaf8f3&#45;acl&#45;2.2.52 -->
<g id="edge19" class="edge"><title>/nix/store/nrxyygy0wqski1klq0305d3h523k41ps&#45;glibc&#45;2.20&#45;&gt;/nix/store/54whwk19x8cgak0pwnnzzq282hwaf8f3&#45;acl&#45;2.2.52</title>
<path fill="none" stroke="black" d="M220.276,-431.862C203.378,-422.421 183.048,-409.825 166.713,-396 144.262,-376.999 122.713,-351.226 108.15,-332.304"/>
<polygon fill="black" stroke="black" points="110.798,-330.003 101.972,-324.142 105.216,-334.228 110.798,-330.003"/>
</g>
<!-- /nix/store/f9i3xzbkx0frdqwqvy8qpk6gcclzf02f&#45;attr&#45;2.4.47 -->
<g id="node11" class="node"><title>/nix/store/f9i3xzbkx0frdqwqvy8qpk6gcclzf02f&#45;attr&#45;2.4.47</title>
<polygon fill="#ffffff" stroke="black" points="113.963,-396 21.4628,-396 21.4628,-360 113.963,-360 113.963,-396"/>
<text text-anchor="middle" x="67.7128" y="-374.3" font-family="Times,serif" font-size="14.00">attr&#45;2.4.47</text>
</g>
<!-- /nix/store/nrxyygy0wqski1klq0305d3h523k41ps&#45;glibc&#45;2.20&#45;&gt;/nix/store/f9i3xzbkx0frdqwqvy8qpk6gcclzf02f&#45;attr&#45;2.4.47 -->
<g id="edge20" class="edge"><title>/nix/store/nrxyygy0wqski1klq0305d3h523k41ps&#45;glibc&#45;2.20&#45;&gt;/nix/store/f9i3xzbkx0frdqwqvy8qpk6gcclzf02f&#45;attr&#45;2.4.47</title>
<path fill="none" stroke="red" d="M210.104,-432.588C183.978,-422.756 150.527,-410.167 122.612,-399.661"/>
<polygon fill="red" stroke="red" points="123.582,-396.287 112.99,-396.04 121.117,-402.838 123.582,-396.287"/>
</g>
<!-- /nix/store/482l1wbyrbqzy8pm0mh9psvk7f7x2qnf&#45;perl&#45;5.20.1&#45;&gt;/nix/store/8nxzd6jkgcihyx26m246ycpnpivicpak&#45;openssl&#45;1.0.1k -->
<g id="edge7" class="edge"><title>/nix/store/482l1wbyrbqzy8pm0mh9psvk7f7x2qnf&#45;perl&#45;5.20.1&#45;&gt;/nix/store/8nxzd6jkgcihyx26m246ycpnpivicpak&#45;openssl&#45;1.0.1k</title>
<path fill="none" stroke="black" d="M251.415,-143.876C278.665,-134.094 313.009,-121.765 341.679,-111.474"/>
<polygon fill="black" stroke="black" points="342.936,-114.741 351.165,-108.068 340.571,-108.153 342.936,-114.741"/>
</g>
<!-- not&#45;managed&#45;1.0.0 -->
<g id="node13" class="node"><title>not&#45;managed&#45;1.0.0</title>
<polygon fill="#ff0000" stroke="black" points="278.213,-108 129.213,-108 129.213,-72 278.213,-72 278.213,-108"/>
<text text-anchor="middle" x="203.713" y="-86.3" font-family="Times,serif" font-size="14.00">not&#45;managed&#45;1.0.0</text>
</g>
<!-- /nix/store/482l1wbyrbqzy8pm0mh9psvk7f7x2qnf&#45;perl&#45;5.20.1&#45;&gt;not&#45;managed&#45;1.0.0 -->
<g id="edge24" class="edge"><title>/nix/store/482l1wbyrbqzy8pm0mh9psvk7f7x2qnf&#45;perl&#45;5.20.1&#45;&gt;not&#45;managed&#45;1.0.0</title>
<path fill="none" stroke="red" stroke-dasharray="5,2" d="M203.713,-143.697C203.713,-135.983 203.713,-126.712 203.713,-118.112"/>
<polygon fill="red" stroke="red" points="207.213,-118.104 203.713,-108.104 200.213,-118.104 207.213,-118.104"/>
</g>
<!-- /nix/store/p9rmkj5s68cjhjnb8msj477wcm5157rx&#45;gcc&#45;4.8.4&#45;&gt;/nix/store/482l1wbyrbqzy8pm0mh9psvk7f7x2qnf&#45;perl&#45;5.20.1 -->
<g id="edge12" class="edge"><title>/nix/store/p9rmkj5s68cjhjnb8msj477wcm5157rx&#45;gcc&#45;4.8.4&#45;&gt;/nix/store/482l1wbyrbqzy8pm0mh9psvk7f7x2qnf&#45;perl&#45;5.20.1</title>
<path fill="none" stroke="burlywood" d="M240.647,-287.871C233.457,-263.564 220.223,-218.819 211.703,-190.013"/>
<polygon fill="burlywood" stroke="burlywood" points="214.99,-188.786 208.797,-180.189 208.277,-190.771 214.99,-188.786"/>
</g>
<!-- /nix/store/54whwk19x8cgak0pwnnzzq282hwaf8f3&#45;acl&#45;2.2.52&#45;&gt;/nix/store/h4ssyq8lac0ywmn8j0lsichvj9fvcfyd&#45;coreutils&#45;8.23 -->
<g id="edge16" class="edge"><title>/nix/store/54whwk19x8cgak0pwnnzzq282hwaf8f3&#45;acl&#45;2.2.52&#45;&gt;/nix/store/h4ssyq8lac0ywmn8j0lsichvj9fvcfyd&#45;coreutils&#45;8.23</title>
<path fill="none" stroke="blue" d="M89.7128,-287.697C89.7128,-279.983 89.7128,-270.712 89.7128,-262.112"/>
<polygon fill="blue" stroke="blue" points="93.2129,-262.104 89.7128,-252.104 86.2129,-262.104 93.2129,-262.104"/>
</g>
<!-- /nix/store/f9i3xzbkx0frdqwqvy8qpk6gcclzf02f&#45;attr&#45;2.4.47&#45;&gt;/nix/store/54whwk19x8cgak0pwnnzzq282hwaf8f3&#45;acl&#45;2.2.52 -->
<g id="edge18" class="edge"><title>/nix/store/f9i3xzbkx0frdqwqvy8qpk6gcclzf02f&#45;attr&#45;2.4.47&#45;&gt;/nix/store/54whwk19x8cgak0pwnnzzq282hwaf8f3&#45;acl&#45;2.2.52</title>
<path fill="none" stroke="burlywood" d="M73.151,-359.697C75.602,-351.898 78.5529,-342.509 81.2807,-333.829"/>
<polygon fill="burlywood" stroke="burlywood" points="84.6778,-334.694 84.3371,-324.104 77.9998,-332.595 84.6778,-334.694"/>
</g>
<!-- /nix/store/jvlrfyjlm4m0jykiw33dk5kjyzmgysiw&#45;linux&#45;headers&#45;3.12.32 -->
<g id="node12" class="node"><title>/nix/store/jvlrfyjlm4m0jykiw33dk5kjyzmgysiw&#45;linux&#45;headers&#45;3.12.32</title>
<polygon fill="#ffffff" stroke="black" points="339.713,-540 167.713,-540 167.713,-504 339.713,-504 339.713,-540"/>
<text text-anchor="middle" x="253.713" y="-518.3" font-family="Times,serif" font-size="14.00">linux&#45;headers&#45;3.12.32</text>
</g>
<!-- /nix/store/jvlrfyjlm4m0jykiw33dk5kjyzmgysiw&#45;linux&#45;headers&#45;3.12.32&#45;&gt;/nix/store/nrxyygy0wqski1klq0305d3h523k41ps&#45;glibc&#45;2.20 -->
<g id="edge21" class="edge"><title>/nix/store/jvlrfyjlm4m0jykiw33dk5kjyzmgysiw&#45;linux&#45;headers&#45;3.12.32&#45;&gt;/nix/store/nrxyygy0wqski1klq0305d3h523k41ps&#45;glibc&#45;2.20</title>
<path fill="none" stroke="green" d="M253.713,-503.697C253.713,-495.983 253.713,-486.712 253.713,-478.112"/>
<polygon fill="green" stroke="green" points="257.213,-478.104 253.713,-468.104 250.213,-478.104 257.213,-478.104"/>
</g>
</g>
</svg>
