<?xml version="1.0" encoding="UTF-8" standalone="no"?>
<!DOCTYPE svg PUBLIC "-//W3C//DTD SVG 1.1//EN"
 "http://www.w3.org/Graphics/SVG/1.1/DTD/svg11.dtd">
<!-- Generated by graphviz version 2.36.0 (20140111.2315)
 -->
<!-- Title: G Pages: 1 -->
<svg width="640pt" height="609pt"
 viewBox="0.00 0.00 640.00 609.00" xmlns="http://www.w3.org/2000/svg" xmlns:xlink="http://www.w3.org/1999/xlink">
<g id="graph0" class="graph" transform="scale(1 1) rotate(0) translate(4 605)">
<title>G</title>
<g id="clust1" class="cluster"><title>cluster_2</title>
<polygon fill="none" stroke="black" points="420,-80 420,-155 569,-155 569,-80 420,-80"/>
<text text-anchor="middle" x="494.5" y="-139.8" font-family="Times,serif" font-size="14.00">User Environment</text>
</g>
<g id="clust2" class="cluster"><title>cluster_1</title>
<polygon fill="none" stroke="black" points="388,-227 388,-302 624,-302 624,-227 388,-227"/>
<text text-anchor="middle" x="506" y="-286.8" font-family="Times,serif" font-size="14.00">User Environment</text>
</g>
<g id="clust3" class="cluster"><title>cluster_0</title>
<polygon fill="none" stroke="blue" points="8,-8 8,-593 380,-593 380,-8 8,-8"/>
<text text-anchor="middle" x="194" y="-577.8" font-family="Times,serif" font-size="14.00">Hidden paths</text>
</g>
<!-- /nix/store/l8rhnzq9yxqhv3il4kmzqhkx8q06jzgv&#45;python&#45;2.7.9 -->
<g id="node1" class="node"><title>/nix/store/l8rhnzq9yxqhv3il4kmzqhkx8q06jzgv&#45;python&#45;2.7.9</title>
<polygon fill="#00ff00" stroke="black" points="252.25,-52 145.75,-52 145.75,-16 252.25,-16 252.25,-52"/>
<text text-anchor="middle" x="199" y="-30.3" font-family="Times,serif" font-size="14.00">python&#45;2.7.9</text>
</g>
<!-- /nix/store/8nxzd6jkgcihyx26m246ycpnpivicpak&#45;openssl&#45;1.0.1k -->
<g id="node2" class="node"><title>/nix/store/8nxzd6jkgcihyx26m246ycpnpivicpak&#45;openssl&#45;1.0.1k</title>
<polygon fill="#ffffff" stroke="black" points="298.5,-124 179.5,-124 179.5,-88 298.5,-88 298.5,-124"/>
<text text-anchor="middle" x="239" y="-102.3" font-family="Times,serif" font-size="14.00">openssl&#45;1.0.1k</text>
</g>
<!-- /nix/store/8nxzd6jkgcihyx26m246ycpnpivicpak&#45;openssl&#45;1.0.1k&#45;&gt;/nix/store/l8rhnzq9yxqhv3il4kmzqhkx8q06jzgv&#45;python&#45;2.7.9 -->
<g id="edge1" class="edge"><title>/nix/store/8nxzd6jkgcihyx26m246ycpnpivicpak&#45;openssl&#45;1.0.1k&#45;&gt;/nix/store/l8rhnzq9yxqhv3il4kmzqhkx8q06jzgv&#45;python&#45;2.7.9</title>
<path fill="none" stroke="black" d="M229.112,-87.6966C224.511,-79.6436 218.94,-69.8945 213.847,-60.9824"/>
<polygon fill="black" stroke="black" points="216.774,-59.0503 208.774,-52.1043 210.696,-62.5233 216.774,-59.0503"/>
</g>
<!-- /nix/store/96vfgc1gfwslmg3hhfzkxsvqqc61mh89&#45;bzip2&#45;1.0.6 -->
<g id="node3" class="node"><title>/nix/store/96vfgc1gfwslmg3hhfzkxsvqqc61mh89&#45;bzip2&#45;1.0.6</title>
<polygon fill="#ffffff" stroke="black" points="132,-271 36,-271 36,-235 132,-235 132,-271"/>
<text text-anchor="middle" x="84" y="-249.3" font-family="Times,serif" font-size="14.00">bzip2&#45;1.0.6</text>
</g>
<!-- /nix/store/96vfgc1gfwslmg3hhfzkxsvqqc61mh89&#45;bzip2&#45;1.0.6&#45;&gt;/nix/store/l8rhnzq9yxqhv3il4kmzqhkx8q06jzgv&#45;python&#45;2.7.9 -->
<g id="edge2" class="edge"><title>/nix/store/96vfgc1gfwslmg3hhfzkxsvqqc61mh89&#45;bzip2&#45;1.0.6&#45;&gt;/nix/store/l8rhnzq9yxqhv3il4kmzqhkx8q06jzgv&#45;python&#45;2.7.9</title>
<path fill="none" stroke="red" d="M78.7219,-234.751C69.6667,-201.482 55.1337,-127.542 88,-80 99.2778,-63.6862 117.559,-53.2821 136.06,-46.6486"/>
<polygon fill="red" stroke="red" points="137.289,-49.9296 145.719,-43.5121 135.127,-43.2718 137.289,-49.9296"/>
</g>
<!-- /nix/store/a2p5i9hb5hpqssh7vp402r6n9slfayqx&#45;zlib&#45;1.2.8 -->
<g id="node4" class="node"><title>/nix/store/a2p5i9hb5hpqssh7vp402r6n9slfayqx&#45;zlib&#45;1.2.8</title>
<polygon fill="#ffffff" stroke="black" points="371.25,-418 288.75,-418 288.75,-382 371.25,-382 371.25,-418"/>
<text text-anchor="middle" x="330" y="-396.3" font-family="Times,serif" font-size="14.00">zlib&#45;1.2.8</text>
</g>
<!-- /nix/store/a2p5i9hb5hpqssh7vp402r6n9slfayqx&#45;zlib&#45;1.2.8&#45;&gt;/nix/store/l8rhnzq9yxqhv3il4kmzqhkx8q06jzgv&#45;python&#45;2.7.9 -->
<g id="edge3" class="edge"><title>/nix/store/a2p5i9hb5hpqssh7vp402r6n9slfayqx&#45;zlib&#45;1.2.8&#45;&gt;/nix/store/l8rhnzq9yxqhv3il4kmzqhkx8q06jzgv&#45;python&#45;2.7.9</title>
<path fill="none" stroke="green" d="M338.297,-381.592C350.277,-354.814 371,-301.612 371,-254 371,-254 371,-254 371,-180 371,-127.233 347.422,-113.918 307,-80 293.798,-68.9217 277.483,-60.2436 261.569,-53.5917"/>
<polygon fill="green" stroke="green" points="262.858,-50.3379 252.272,-49.9065 260.279,-56.8453 262.858,-50.3379"/>
</g>
<!-- /nix/store/p9rmkj5s68cjhjnb8msj477wcm5157rx&#45;gcc&#45;4.8.4 -->
<g id="node9" class="node"><title>/nix/store/p9rmkj5s68cjhjnb8msj477wcm5157rx&#45;gcc&#45;4.8.4</title>
<polygon fill="#ffffff" stroke="black" points="331.25,-346 248.75,-346 248.75,-310 331.25,-310 331.25,-346"/>
<text text-anchor="middle" x="290" y="-324.3" font-family="Times,serif" font-size="14.00">gcc&#45;4.8.4</text>
</g>
<!-- /nix/store/a2p5i9hb5hpqssh7vp402r6n9slfayqx&#45;zlib&#45;1.2.8&#45;&gt;/nix/store/p9rmkj5s68cjhjnb8msj477wcm5157rx&#45;gcc&#45;4.8.4 -->
<g id="edge22" class="edge"><title>/nix/store/a2p5i9hb5hpqssh7vp402r6n9slfayqx&#45;zlib&#45;1.2.8&#45;&gt;/nix/store/p9rmkj5s68cjhjnb8msj477wcm5157rx&#45;gcc&#45;4.8.4</title>
<path fill="none" stroke="blue" d="M320.112,-381.697C315.511,-373.644 309.94,-363.894 304.847,-354.982"/>
<polygon fill="blue" stroke="blue" points="307.774,-353.05 299.774,-346.104 301.696,-356.523 307.774,-353.05"/>
</g>
<!-- /nix/store/cxrc12hkmvrjlq747cm08av6jl41nzi1&#45;bash&#45;4.3&#45;p30 -->
<g id="node5" class="node"><title>/nix/store/cxrc12hkmvrjlq747cm08av6jl41nzi1&#45;bash&#45;4.3&#45;p30</title>
<polygon fill="#ffffff" stroke="black" points="217.25,-199 108.75,-199 108.75,-163 217.25,-163 217.25,-199"/>
<text text-anchor="middle" x="163" y="-177.3" font-family="Times,serif" font-size="14.00">bash&#45;4.3&#45;p30</text>
</g>
<!-- /nix/store/cxrc12hkmvrjlq747cm08av6jl41nzi1&#45;bash&#45;4.3&#45;p30&#45;&gt;/nix/store/l8rhnzq9yxqhv3il4kmzqhkx8q06jzgv&#45;python&#45;2.7.9 -->
<g id="edge4" class="edge"><title>/nix/store/cxrc12hkmvrjlq747cm08av6jl41nzi1&#45;bash&#45;4.3&#45;p30&#45;&gt;/nix/store/l8rhnzq9yxqhv3il4kmzqhkx8q06jzgv&#45;python&#45;2.7.9</title>
<path fill="none" stroke="blue" d="M161.659,-162.871C160.639,-142.549 160.715,-107.908 170,-80 172.208,-73.3637 175.623,-66.7406 179.346,-60.6964"/>
<polygon fill="blue" stroke="blue" points="182.292,-62.5863 184.915,-52.3211 176.463,-58.7105 182.292,-62.5863"/>
</g>
<!-- /nix/store/cxrc12hkmvrjlq747cm08av6jl41nzi1&#45;bash&#45;4.3&#45;p30&#45;&gt;/nix/store/8nxzd6jkgcihyx26m246ycpnpivicpak&#45;openssl&#45;1.0.1k -->
<g id="edge8" class="edge"><title>/nix/store/cxrc12hkmvrjlq747cm08av6jl41nzi1&#45;bash&#45;4.3&#45;p30&#45;&gt;/nix/store/8nxzd6jkgcihyx26m246ycpnpivicpak&#45;openssl&#45;1.0.1k</title>
<path fill="none" stroke="red" d="M181.011,-162.7C190.76,-153.336 202.962,-141.615 213.655,-131.344"/>
<polygon fill="red" stroke="red" points="216.331,-133.627 221.118,-124.176 211.482,-128.579 216.331,-133.627"/>
</g>
<!-- /nix/store/h4ssyq8lac0ywmn8j0lsichvj9fvcfyd&#45;coreutils&#45;8.23 -->
<g id="node6" class="node"><title>/nix/store/h4ssyq8lac0ywmn8j0lsichvj9fvcfyd&#45;coreutils&#45;8.23</title>
<polygon fill="#ffffff" stroke="black" points="285.5,-271 170.5,-271 170.5,-235 285.5,-235 285.5,-271"/>
<text text-anchor="middle" x="228" y="-249.3" font-family="Times,serif" font-size="14.00">coreutils&#45;8.23</text>
</g>
<!-- /nix/store/h4ssyq8lac0ywmn8j0lsichvj9fvcfyd&#45;coreutils&#45;8.23&#45;&gt;/nix/store/l8rhnzq9yxqhv3il4kmzqhkx8q06jzgv&#45;python&#45;2.7.9 -->
<g id="edge5" class="edge"><title>/nix/store/h4ssyq8lac0ywmn8j0lsichvj9fvcfyd&#45;coreutils&#45;8.23&#45;&gt;/nix/store/l8rhnzq9yxqhv3il4kmzqhkx8q06jzgv&#45;python&#45;2.7.9</title>
<path fill="none" stroke="magenta" d="M170.323,-235.271C140.13,-225.226 107.661,-211.922 99,-199 66.1704,-150.019 126.398,-90.4622 166.795,-58.3055"/>
<polygon fill="magenta" stroke="magenta" points="169.079,-60.9632 174.825,-52.0619 164.783,-55.437 169.079,-60.9632"/>
</g>
<!-- /nix/store/482l1wbyrbqzy8pm0mh9psvk7f7x2qnf&#45;perl&#45;5.20.1 -->
<g id="node8" class="node"><title>/nix/store/482l1wbyrbqzy8pm0mh9psvk7f7x2qnf&#45;perl&#45;5.20.1</title>
<polygon fill="#00ff00" stroke="black" points="351.25,-199 256.75,-199 256.75,-163 351.25,-163 351.25,-199"/>
<text text-anchor="middle" x="304" y="-177.3" font-family="Times,serif" font-size="14.00">perl&#45;5.20.1</text>
</g>
<!-- /nix/store/h4ssyq8lac0ywmn8j0lsichvj9fvcfyd&#45;coreutils&#45;8.23&#45;&gt;/nix/store/482l1wbyrbqzy8pm0mh9psvk7f7x2qnf&#45;perl&#45;5.20.1 -->
<g id="edge10" class="edge"><title>/nix/store/h4ssyq8lac0ywmn8j0lsichvj9fvcfyd&#45;coreutils&#45;8.23&#45;&gt;/nix/store/482l1wbyrbqzy8pm0mh9psvk7f7x2qnf&#45;perl&#45;5.20.1</title>
<path fill="none" stroke="blue" d="M246.787,-234.697C256.174,-226.05 267.684,-215.449 277.913,-206.027"/>
<polygon fill="blue" stroke="blue" points="280.445,-208.454 285.43,-199.104 275.703,-203.305 280.445,-208.454"/>
</g>
<!-- /nix/store/nrxyygy0wqski1klq0305d3h523k41ps&#45;glibc&#45;2.20 -->
<g id="node7" class="node"><title>/nix/store/nrxyygy0wqski1klq0305d3h523k41ps&#45;glibc&#45;2.20</title>
<polygon fill="#ffffff" stroke="black" points="219.5,-490 132.5,-490 132.5,-454 219.5,-454 219.5,-490"/>
<text text-anchor="middle" x="176" y="-468.3" font-family="Times,serif" font-size="14.00">glibc&#45;2.20</text>
</g>
<!-- /nix/store/nrxyygy0wqski1klq0305d3h523k41ps&#45;glibc&#45;2.20&#45;&gt;/nix/store/l8rhnzq9yxqhv3il4kmzqhkx8q06jzgv&#45;python&#45;2.7.9 -->
<g id="edge6" class="edge"><title>/nix/store/nrxyygy0wqski1klq0305d3h523k41ps&#45;glibc&#45;2.20&#45;&gt;/nix/store/l8rhnzq9yxqhv3il4kmzqhkx8q06jzgv&#45;python&#45;2.7.9</title>
<path fill="none" stroke="burlywood" d="M132.279,-466.068C100.318,-460.104 58.4442,-446.953 34,-418 8.02139,-387.229 17,-369.271 17,-329 17,-329 17,-329 17,-180 17,-130.891 27.2942,-112.624 64,-80 83.8814,-62.3294 110.918,-51.5627 135.576,-45.0183"/>
<polygon fill="burlywood" stroke="burlywood" points="136.735,-48.3375 145.607,-42.5467 135.06,-41.5408 136.735,-48.3375"/>
</g>
<!-- /nix/store/nrxyygy0wqski1klq0305d3h523k41ps&#45;glibc&#45;2.20&#45;&gt;/nix/store/8nxzd6jkgcihyx26m246ycpnpivicpak&#45;openssl&#45;1.0.1k -->
<g id="edge9" class="edge"><title>/nix/store/nrxyygy0wqski1klq0305d3h523k41ps&#45;glibc&#45;2.20&#45;&gt;/nix/store/8nxzd6jkgcihyx26m246ycpnpivicpak&#45;openssl&#45;1.0.1k</title>
<path fill="none" stroke="green" d="M186.553,-453.763C192.487,-443.601 199.737,-430.351 205,-418 214.864,-394.853 219.839,-326.308 239,-310 257.811,-293.99 277.839,-320.682 294,-302 315.808,-276.79 310.469,-255.981 294,-227 281.987,-205.86 259.918,-219.599 247,-199 234.926,-179.747 233.77,-153.608 235.143,-134.112"/>
<polygon fill="green" stroke="green" points="238.638,-134.34 236.113,-124.05 231.67,-133.668 238.638,-134.34"/>
</g>
<!-- /nix/store/nrxyygy0wqski1klq0305d3h523k41ps&#45;glibc&#45;2.20&#45;&gt;/nix/store/96vfgc1gfwslmg3hhfzkxsvqqc61mh89&#45;bzip2&#45;1.0.6 -->
<g id="edge13" class="edge"><title>/nix/store/nrxyygy0wqski1klq0305d3h523k41ps&#45;glibc&#45;2.20&#45;&gt;/nix/store/96vfgc1gfwslmg3hhfzkxsvqqc61mh89&#45;bzip2&#45;1.0.6</title>
<path fill="none" stroke="black" d="M132.289,-464.714C104.19,-458.162 69.734,-444.866 52,-418 25.5569,-377.94 39.6799,-356.392 52,-310 54.8022,-299.448 60.1116,-288.811 65.612,-279.684"/>
<polygon fill="black" stroke="black" points="68.6503,-281.429 71.0903,-271.119 62.7534,-277.657 68.6503,-281.429"/>
</g>
<!-- /nix/store/nrxyygy0wqski1klq0305d3h523k41ps&#45;glibc&#45;2.20&#45;&gt;/nix/store/a2p5i9hb5hpqssh7vp402r6n9slfayqx&#45;zlib&#45;1.2.8 -->
<g id="edge14" class="edge"><title>/nix/store/nrxyygy0wqski1klq0305d3h523k41ps&#45;glibc&#45;2.20&#45;&gt;/nix/store/a2p5i9hb5hpqssh7vp402r6n9slfayqx&#45;zlib&#45;1.2.8</title>
<path fill="none" stroke="red" d="M213.673,-453.876C234.632,-444.349 260.905,-432.407 283.177,-422.283"/>
<polygon fill="red" stroke="red" points="284.794,-425.393 292.45,-418.068 281.898,-419.02 284.794,-425.393"/>
</g>
<!-- /nix/store/nrxyygy0wqski1klq0305d3h523k41ps&#45;glibc&#45;2.20&#45;&gt;/nix/store/cxrc12hkmvrjlq747cm08av6jl41nzi1&#45;bash&#45;4.3&#45;p30 -->
<g id="edge15" class="edge"><title>/nix/store/nrxyygy0wqski1klq0305d3h523k41ps&#45;glibc&#45;2.20&#45;&gt;/nix/store/cxrc12hkmvrjlq747cm08av6jl41nzi1&#45;bash&#45;4.3&#45;p30</title>
<path fill="none" stroke="green" d="M132.403,-458.585C112.429,-450.474 90.65,-437.641 79,-418 67.251,-398.192 78.3037,-319.946 88,-310 104.629,-292.942 123.892,-318.578 141,-302 153.926,-289.475 159.386,-240.688 161.596,-209.309"/>
<polygon fill="green" stroke="green" points="165.108,-209.225 162.249,-199.024 158.122,-208.782 165.108,-209.225"/>
</g>
<!-- /nix/store/nrxyygy0wqski1klq0305d3h523k41ps&#45;glibc&#45;2.20&#45;&gt;/nix/store/h4ssyq8lac0ywmn8j0lsichvj9fvcfyd&#45;coreutils&#45;8.23 -->
<g id="edge17" class="edge"><title>/nix/store/nrxyygy0wqski1klq0305d3h523k41ps&#45;glibc&#45;2.20&#45;&gt;/nix/store/h4ssyq8lac0ywmn8j0lsichvj9fvcfyd&#45;coreutils&#45;8.23</title>
<path fill="none" stroke="magenta" d="M132.18,-455.955C114.906,-447.624 96.8639,-435.354 87,-418 79.0938,-404.09 84.2415,-397.76 87,-382 92.8656,-348.487 87.0682,-332.024 113,-310 127.816,-297.416 137.991,-309.318 156,-302 171.153,-295.842 186.44,-286.24 199.006,-277.238"/>
<polygon fill="magenta" stroke="magenta" points="201.278,-279.911 207.236,-271.15 197.115,-274.283 201.278,-279.911"/>
</g>
<!-- /nix/store/nrxyygy0wqski1klq0305d3h523k41ps&#45;glibc&#45;2.20&#45;&gt;/nix/store/482l1wbyrbqzy8pm0mh9psvk7f7x2qnf&#45;perl&#45;5.20.1 -->
<g id="edge11" class="edge"><title>/nix/store/nrxyygy0wqski1klq0305d3h523k41ps&#45;glibc&#45;2.20&#45;&gt;/nix/store/482l1wbyrbqzy8pm0mh9psvk7f7x2qnf&#45;perl&#45;5.20.1</title>
<path fill="none" stroke="magenta" d="M205.068,-453.846C219.963,-444.311 237.886,-431.635 252,-418 266.384,-404.104 264.1,-395.341 279,-382 302.454,-361.001 324.39,-373.338 340,-346 365.103,-302.037 339.578,-242.245 320.564,-208.334"/>
<polygon fill="magenta" stroke="magenta" points="323.474,-206.376 315.421,-199.491 317.422,-209.895 323.474,-206.376"/>
</g>
<!-- /nix/store/nrxyygy0wqski1klq0305d3h523k41ps&#45;glibc&#45;2.20&#45;&gt;/nix/store/p9rmkj5s68cjhjnb8msj477wcm5157rx&#45;gcc&#45;4.8.4 -->
<g id="edge23" class="edge"><title>/nix/store/nrxyygy0wqski1klq0305d3h523k41ps&#45;glibc&#45;2.20&#45;&gt;/nix/store/p9rmkj5s68cjhjnb8msj477wcm5157rx&#45;gcc&#45;4.8.4</title>
<path fill="none" stroke="magenta" d="M197.431,-453.847C208.983,-444.027 223.068,-431.085 234,-418 250.347,-398.435 265.524,-373.73 275.943,-355.315"/>
<polygon fill="magenta" stroke="magenta" points="279.143,-356.761 280.939,-346.32 273.024,-353.363 279.143,-356.761"/>
</g>
<!-- /nix/store/54whwk19x8cgak0pwnnzzq282hwaf8f3&#45;acl&#45;2.2.52 -->
<g id="node10" class="node"><title>/nix/store/54whwk19x8cgak0pwnnzzq282hwaf8f3&#45;acl&#45;2.2.52</title>
<polygon fill="#ffffff" stroke="black" points="209.25,-346 122.75,-346 122.75,-310 209.25,-310 209.25,-346"/>
<text text-anchor="middle" x="166" y="-324.3" font-family="Times,serif" font-size="14.00">acl&#45;2.2.52</text>
</g>
<!-- /nix/store/nrxyygy0wqski1klq0305d3h523k41ps&#45;glibc&#45;2.20&#45;&gt;/nix/store/54whwk19x8cgak0pwnnzzq282hwaf8f3&#45;acl&#45;2.2.52 -->
<g id="edge19" class="edge"><title>/nix/store/nrxyygy0wqski1klq0305d3h523k41ps&#45;glibc&#45;2.20&#45;&gt;/nix/store/54whwk19x8cgak0pwnnzzq282hwaf8f3&#45;acl&#45;2.2.52</title>
<path fill="none" stroke="black" d="M185.518,-453.861C194.27,-435.882 204.917,-406.84 198,-382 195.332,-372.419 190.412,-362.84 185.216,-354.513"/>
<polygon fill="black" stroke="black" points="188.021,-352.41 179.564,-346.028 182.195,-356.291 188.021,-352.41"/>
</g>
<!-- /nix/store/f9i3xzbkx0frdqwqvy8qpk6gcclzf02f&#45;attr&#45;2.4.47 -->
<g id="node11" class="node"><title>/nix/store/f9i3xzbkx0frdqwqvy8qpk6gcclzf02f&#45;attr&#45;2.4.47</title>
<polygon fill="#ffffff" stroke="black" points="189.25,-418 96.75,-418 96.75,-382 189.25,-382 189.25,-418"/>
<text text-anchor="middle" x="143" y="-396.3" font-family="Times,serif" font-size="14.00">attr&#45;2.4.47</text>
</g>
<!-- /nix/store/nrxyygy0wqski1klq0305d3h523k41ps&#45;glibc&#45;2.20&#45;&gt;/nix/store/f9i3xzbkx0frdqwqvy8qpk6gcclzf02f&#45;attr&#45;2.4.47 -->
<g id="edge20" class="edge"><title>/nix/store/nrxyygy0wqski1klq0305d3h523k41ps&#45;glibc&#45;2.20&#45;&gt;/nix/store/f9i3xzbkx0frdqwqvy8qpk6gcclzf02f&#45;attr&#45;2.4.47</title>
<path fill="none" stroke="red" d="M167.843,-453.697C164.086,-445.728 159.547,-436.1 155.382,-427.264"/>
<polygon fill="red" stroke="red" points="158.494,-425.657 151.063,-418.104 152.162,-428.642 158.494,-425.657"/>
</g>
<!-- /nix/store/482l1wbyrbqzy8pm0mh9psvk7f7x2qnf&#45;perl&#45;5.20.1&#45;&gt;/nix/store/8nxzd6jkgcihyx26m246ycpnpivicpak&#45;openssl&#45;1.0.1k -->
<g id="edge7" class="edge"><title>/nix/store/482l1wbyrbqzy8pm0mh9psvk7f7x2qnf&#45;perl&#45;5.20.1&#45;&gt;/nix/store/8nxzd6jkgcihyx26m246ycpnpivicpak&#45;openssl&#45;1.0.1k</title>
<path fill="none" stroke="black" d="M288.596,-162.7C280.42,-153.518 270.226,-142.069 261.21,-131.944"/>
<polygon fill="black" stroke="black" points="263.558,-129.317 254.294,-124.176 258.33,-133.972 263.558,-129.317"/>
</g>
<!-- /nix/store/p9rmkj5s68cjhjnb8msj477wcm5157rx&#45;gcc&#45;4.8.4&#45;&gt;/nix/store/482l1wbyrbqzy8pm0mh9psvk7f7x2qnf&#45;perl&#45;5.20.1 -->
<g id="edge12" class="edge"><title>/nix/store/p9rmkj5s68cjhjnb8msj477wcm5157rx&#45;gcc&#45;4.8.4&#45;&gt;/nix/store/482l1wbyrbqzy8pm0mh9psvk7f7x2qnf&#45;perl&#45;5.20.1</title>
<path fill="none" stroke="burlywood" d="M306.037,-309.871C307.65,-307.378 309.043,-304.727 310,-302 320.693,-271.515 316.252,-233.996 311.075,-209.111"/>
<polygon fill="burlywood" stroke="burlywood" points="314.471,-208.259 308.853,-199.276 307.643,-209.802 314.471,-208.259"/>
</g>
<!-- /nix/store/54whwk19x8cgak0pwnnzzq282hwaf8f3&#45;acl&#45;2.2.52&#45;&gt;/nix/store/h4ssyq8lac0ywmn8j0lsichvj9fvcfyd&#45;coreutils&#45;8.23 -->
<g id="edge16" class="edge"><title>/nix/store/54whwk19x8cgak0pwnnzzq282hwaf8f3&#45;acl&#45;2.2.52&#45;&gt;/nix/store/h4ssyq8lac0ywmn8j0lsichvj9fvcfyd&#45;coreutils&#45;8.23</title>
<path fill="none" stroke="blue" d="M180.693,-309.7C188.492,-300.518 198.215,-289.069 206.815,-278.944"/>
<polygon fill="blue" stroke="blue" points="209.607,-281.064 213.412,-271.176 204.271,-276.532 209.607,-281.064"/>
</g>
<!-- /nix/store/f9i3xzbkx0frdqwqvy8qpk6gcclzf02f&#45;attr&#45;2.4.47&#45;&gt;/nix/store/54whwk19x8cgak0pwnnzzq282hwaf8f3&#45;acl&#45;2.2.52 -->
<g id="edge18" class="edge"><title>/nix/store/f9i3xzbkx0frdqwqvy8qpk6gcclzf02f&#45;attr&#45;2.4.47&#45;&gt;/nix/store/54whwk19x8cgak0pwnnzzq282hwaf8f3&#45;acl&#45;2.2.52</title>
<path fill="none" stroke="burlywood" d="M148.685,-381.697C151.248,-373.898 154.333,-364.509 157.185,-355.829"/>
<polygon fill="burlywood" stroke="burlywood" points="160.584,-356.697 160.38,-346.104 153.933,-354.512 160.584,-356.697"/>
</g>
<!-- /nix/store/jvlrfyjlm4m0jykiw33dk5kjyzmgysiw&#45;linux&#45;headers&#45;3.12.32 -->
<g id="node12" class="node"><title>/nix/store/jvlrfyjlm4m0jykiw33dk5kjyzmgysiw&#45;linux&#45;headers&#45;3.12.32</title>
<polygon fill="#ffffff" stroke="black" points="262,-562 90,-562 90,-526 262,-526 262,-562"/>
<text text-anchor="middle" x="176" y="-540.3" font-family="Times,serif" font-size="14.00">linux&#45;headers&#45;3.12.32</text>
</g>
<!-- /nix/store/jvlrfyjlm4m0jykiw33dk5kjyzmgysiw&#45;linux&#45;headers&#45;3.12.32&#45;&gt;/nix/store/nrxyygy0wqski1klq0305d3h523k41ps&#45;glibc&#45;2.20 -->
<g id="edge21" class="edge"><title>/nix/store/jvlrfyjlm4m0jykiw33dk5kjyzmgysiw&#45;linux&#45;headers&#45;3.12.32&#45;&gt;/nix/store/nrxyygy0wqski1klq0305d3h523k41ps&#45;glibc&#45;2.20</title>
<path fill="none" stroke="green" d="M176,-525.697C176,-517.983 176,-508.712 176,-500.112"/>
<polygon fill="green" stroke="green" points="179.5,-500.104 176,-490.104 172.5,-500.104 179.5,-500.104"/>
</g>
<!-- python&#45;2.7.9&#45;u0 -->
<g id="node13" class="node"><title>python&#45;2.7.9&#45;u0</title>
<polygon fill="#88ff88" stroke="black" points="535.25,-124 428.75,-124 428.75,-88 535.25,-88 535.25,-124"/>
<text text-anchor="middle" x="482" y="-102.3" font-family="Times,serif" font-size="14.00">python&#45;2.7.9</text>
</g>
<!-- python&#45;2.7.9&#45;u0&#45;&gt;/nix/store/l8rhnzq9yxqhv3il4kmzqhkx8q06jzgv&#45;python&#45;2.7.9 -->
<g id="edge24" class="edge"><title>python&#45;2.7.9&#45;u0&#45;&gt;/nix/store/l8rhnzq9yxqhv3il4kmzqhkx8q06jzgv&#45;python&#45;2.7.9</title>
<path fill="none" stroke="green" d="M438.416,-87.9104C430.365,-85.059 421.98,-82.2887 414,-80 363.774,-65.5944 305.723,-53.7185 262.611,-45.791"/>
<polygon fill="green" stroke="green" points="263.007,-42.3056 252.542,-43.9612 261.755,-49.1928 263.007,-42.3056"/>
</g>
<!-- python&#45;2.7.9&#45;u1 -->
<g id="node14" class="node"><title>python&#45;2.7.9&#45;u1</title>
<polygon fill="#88ff88" stroke="black" points="616.25,-271 509.75,-271 509.75,-235 616.25,-235 616.25,-271"/>
<text text-anchor="middle" x="563" y="-249.3" font-family="Times,serif" font-size="14.00">python&#45;2.7.9</text>
</g>
<!-- python&#45;2.7.9&#45;u1&#45;&gt;/nix/store/l8rhnzq9yxqhv3il4kmzqhkx8q06jzgv&#45;python&#45;2.7.9 -->
<g id="edge25" class="edge"><title>python&#45;2.7.9&#45;u1&#45;&gt;/nix/store/l8rhnzq9yxqhv3il4kmzqhkx8q06jzgv&#45;python&#45;2.7.9</title>
<path fill="none" stroke="green" d="M527.313,-234.98C495.07,-218.207 447.912,-190.039 416,-155 390.562,-127.07 405.73,-103.308 376,-80 343.726,-54.698 298.883,-43.476 262.409,-38.5654"/>
<polygon fill="green" stroke="green" points="262.711,-35.0764 252.361,-37.3412 261.865,-42.025 262.711,-35.0764"/>
</g>
<!-- perl&#45;5.20.1&#45;u1 -->
<g id="node15" class="node"><title>perl&#45;5.20.1&#45;u1</title>
<polygon fill="#88ff88" stroke="black" points="491.25,-271 396.75,-271 396.75,-235 491.25,-235 491.25,-271"/>
<text text-anchor="middle" x="444" y="-249.3" font-family="Times,serif" font-size="14.00">perl&#45;5.20.1</text>
</g>
<!-- perl&#45;5.20.1&#45;u1&#45;&gt;/nix/store/482l1wbyrbqzy8pm0mh9psvk7f7x2qnf&#45;perl&#45;5.20.1 -->
<g id="edge26" class="edge"><title>perl&#45;5.20.1&#45;u1&#45;&gt;/nix/store/482l1wbyrbqzy8pm0mh9psvk7f7x2qnf&#45;perl&#45;5.20.1</title>
<path fill="none" stroke="green" d="M409.752,-234.876C390.939,-225.469 367.415,-213.708 347.334,-203.667"/>
<polygon fill="green" stroke="green" points="348.889,-200.531 338.38,-199.19 345.759,-206.792 348.889,-200.531"/>
</g>
</g>
</svg>
