<?xml version="1.0" encoding="UTF-8" standalone="no"?>
<!DOCTYPE svg PUBLIC "-//W3C//DTD SVG 1.1//EN"
 "http://www.w3.org/Graphics/SVG/1.1/DTD/svg11.dtd">
<!-- Generated by graphviz version 2.36.0 (20140111.2315)
 -->
<!-- Title: G Pages: 1 -->
<svg width="554pt" height="423pt"
 viewBox="0.00 0.00 554.00 423.00" xmlns="http://www.w3.org/2000/svg" xmlns:xlink="http://www.w3.org/1999/xlink">
<g id="graph0" class="graph" transform="scale(1 1) rotate(0) translate(4 419)">
<title>G</title>
<g id="clust3" class="cluster"><title>cluster_2</title>
<polygon fill="none" stroke="black" points="380,-8 380,-407 538,-407 538,-8 380,-8"/>
<text text-anchor="middle" x="459" y="-391.8" font-family="Times,serif" font-size="14.00">Build Environment</text>
</g>
<!-- /nix/store/13gnii6g05c1p5ixf22la1fqwd9nbjv5&#45;bzip2&#45;1.0.6.drv -->
<g id="node1" class="node"><title>/nix/store/13gnii6g05c1p5ixf22la1fqwd9nbjv5&#45;bzip2&#45;1.0.6.drv</title>
<polygon fill="#ffffff" stroke="black" points="152.5,-415 27.5,-415 27.5,-379 152.5,-379 152.5,-415"/>
<text text-anchor="middle" x="90" y="-393.3" font-family="Times,serif" font-size="14.00">bzip2&#45;1.0.6.drv</text>
</g>
<!-- /nix/store/xygg3wqnxdi8v3xhk3ks57kdsxlri2l8&#45;python&#45;2.7.9.drv -->
<g id="node9" class="node"><title>/nix/store/xygg3wqnxdi8v3xhk3ks57kdsxlri2l8&#45;python&#45;2.7.9.drv</title>
<polygon fill="#ffffff" stroke="black" points="351.5,-207 216.5,-207 216.5,-171 351.5,-171 351.5,-207"/>
<text text-anchor="middle" x="284" y="-185.3" font-family="Times,serif" font-size="14.00">python&#45;2.7.9.drv</text>
</g>
<!-- /nix/store/13gnii6g05c1p5ixf22la1fqwd9nbjv5&#45;bzip2&#45;1.0.6.drv&#45;&gt;/nix/store/xygg3wqnxdi8v3xhk3ks57kdsxlri2l8&#45;python&#45;2.7.9.drv -->
<g id="edge1" class="edge"><title>/nix/store/13gnii6g05c1p5ixf22la1fqwd9nbjv5&#45;bzip2&#45;1.0.6.drv&#45;&gt;/nix/store/xygg3wqnxdi8v3xhk3ks57kdsxlri2l8&#45;python&#45;2.7.9.drv</title>
<path fill="none" stroke="black" d="M152.93,-384.926C162.626,-381.208 172.052,-376.349 180,-370 230.805,-329.418 261.061,-256.526 274.566,-216.749"/>
<polygon fill="black" stroke="black" points="277.921,-217.75 277.715,-207.157 271.27,-215.567 277.921,-217.75"/>
</g>
<!-- view&#45;13gnii6g05c1p5ixf22la1fqwd9nbjv5&#45;bzip2&#45;1.0.6.drv -->
<g id="node10" class="node"><title>view&#45;13gnii6g05c1p5ixf22la1fqwd9nbjv5&#45;bzip2&#45;1.0.6.drv</title>
<polygon fill="#ffffff" stroke="black" points="507,-376 411,-376 411,-340 507,-340 507,-376"/>
<text text-anchor="middle" x="459" y="-354.3" font-family="Times,serif" font-size="14.00">bzip2&#45;1.0.6</text>
</g>
<!-- /nix/store/13gnii6g05c1p5ixf22la1fqwd9nbjv5&#45;bzip2&#45;1.0.6.drv&#45;&gt;view&#45;13gnii6g05c1p5ixf22la1fqwd9nbjv5&#45;bzip2&#45;1.0.6.drv -->
<g id="edge9" class="edge"><title>/nix/store/13gnii6g05c1p5ixf22la1fqwd9nbjv5&#45;bzip2&#45;1.0.6.drv&#45;&gt;view&#45;13gnii6g05c1p5ixf22la1fqwd9nbjv5&#45;bzip2&#45;1.0.6.drv</title>
<path fill="none" stroke="black" d="M152.842,-390.428C222.112,-383.067 333.479,-371.232 400.799,-364.079"/>
<polygon fill="black" stroke="black" points="401.232,-367.552 410.806,-363.015 400.493,-360.592 401.232,-367.552"/>
</g>
<!-- /nix/store/3m5zq1f38mdk51ks25hz8pnl99hq6j5k&#45;glibc&#45;2.20.drv -->
<g id="node2" class="node"><title>/nix/store/3m5zq1f38mdk51ks25hz8pnl99hq6j5k&#45;glibc&#45;2.20.drv</title>
<polygon fill="#ffffff" stroke="black" points="148,-361 32,-361 32,-325 148,-325 148,-361"/>
<text text-anchor="middle" x="90" y="-339.3" font-family="Times,serif" font-size="14.00">glibc&#45;2.20.drv</text>
</g>
<!-- /nix/store/3m5zq1f38mdk51ks25hz8pnl99hq6j5k&#45;glibc&#45;2.20.drv&#45;&gt;/nix/store/xygg3wqnxdi8v3xhk3ks57kdsxlri2l8&#45;python&#45;2.7.9.drv -->
<g id="edge2" class="edge"><title>/nix/store/3m5zq1f38mdk51ks25hz8pnl99hq6j5k&#45;glibc&#45;2.20.drv&#45;&gt;/nix/store/xygg3wqnxdi8v3xhk3ks57kdsxlri2l8&#45;python&#45;2.7.9.drv</title>
<path fill="none" stroke="red" d="M148.355,-331.1C159.404,-327.322 170.486,-322.397 180,-316 218.901,-289.843 250.472,-244.589 267.984,-215.758"/>
<polygon fill="red" stroke="red" points="271.076,-217.406 273.167,-207.02 265.055,-213.835 271.076,-217.406"/>
</g>
<!-- view&#45;3m5zq1f38mdk51ks25hz8pnl99hq6j5k&#45;glibc&#45;2.20.drv -->
<g id="node11" class="node"><title>view&#45;3m5zq1f38mdk51ks25hz8pnl99hq6j5k&#45;glibc&#45;2.20.drv</title>
<polygon fill="#ffffff" stroke="black" points="503,-322 415,-322 415,-286 503,-286 503,-322"/>
<text text-anchor="middle" x="459" y="-300.3" font-family="Times,serif" font-size="14.00">glibc&#45;2.20</text>
</g>
<!-- /nix/store/3m5zq1f38mdk51ks25hz8pnl99hq6j5k&#45;glibc&#45;2.20.drv&#45;&gt;view&#45;3m5zq1f38mdk51ks25hz8pnl99hq6j5k&#45;glibc&#45;2.20.drv -->
<g id="edge10" class="edge"><title>/nix/store/3m5zq1f38mdk51ks25hz8pnl99hq6j5k&#45;glibc&#45;2.20.drv&#45;&gt;view&#45;3m5zq1f38mdk51ks25hz8pnl99hq6j5k&#45;glibc&#45;2.20.drv</title>
<path fill="none" stroke="black" d="M148.344,-336.906C218.526,-329.448 336.429,-316.919 404.711,-309.663"/>
<polygon fill="black" stroke="black" points="405.247,-313.126 414.821,-308.588 404.507,-306.165 405.247,-313.126"/>
</g>
<!-- /nix/store/9krlzvny65gdc8s7kpb6lkx8cd02c25b&#45;default&#45;builder.sh -->
<g id="node3" class="node"><title>/nix/store/9krlzvny65gdc8s7kpb6lkx8cd02c25b&#45;default&#45;builder.sh</title>
<polygon fill="#ffffff" stroke="black" points="161,-307 19,-307 19,-271 161,-271 161,-307"/>
<text text-anchor="middle" x="90" y="-285.3" font-family="Times,serif" font-size="14.00">default&#45;builder.sh</text>
</g>
<!-- /nix/store/9krlzvny65gdc8s7kpb6lkx8cd02c25b&#45;default&#45;builder.sh&#45;&gt;/nix/store/xygg3wqnxdi8v3xhk3ks57kdsxlri2l8&#45;python&#45;2.7.9.drv -->
<g id="edge3" class="edge"><title>/nix/store/9krlzvny65gdc8s7kpb6lkx8cd02c25b&#45;default&#45;builder.sh&#45;&gt;/nix/store/xygg3wqnxdi8v3xhk3ks57kdsxlri2l8&#45;python&#45;2.7.9.drv</title>
<path fill="none" stroke="green" d="M158.947,-270.899C166.183,-268.233 173.33,-265.268 180,-262 206.694,-248.922 234.013,-229.212 253.803,-213.568"/>
<polygon fill="green" stroke="green" points="256.196,-216.135 261.799,-207.143 251.811,-210.678 256.196,-216.135"/>
</g>
<!-- view&#45;9krlzvny65gdc8s7kpb6lkx8cd02c25b&#45;default&#45;builder.sh -->
<g id="node12" class="node"><title>view&#45;9krlzvny65gdc8s7kpb6lkx8cd02c25b&#45;default&#45;builder.sh</title>
<polygon fill="#ffffff" stroke="black" points="530,-268 388,-268 388,-232 530,-232 530,-268"/>
<text text-anchor="middle" x="459" y="-246.3" font-family="Times,serif" font-size="14.00">default&#45;builder.sh</text>
</g>
<!-- /nix/store/9krlzvny65gdc8s7kpb6lkx8cd02c25b&#45;default&#45;builder.sh&#45;&gt;view&#45;9krlzvny65gdc8s7kpb6lkx8cd02c25b&#45;default&#45;builder.sh -->
<g id="edge11" class="edge"><title>/nix/store/9krlzvny65gdc8s7kpb6lkx8cd02c25b&#45;default&#45;builder.sh&#45;&gt;view&#45;9krlzvny65gdc8s7kpb6lkx8cd02c25b&#45;default&#45;builder.sh</title>
<path fill="none" stroke="black" d="M161.327,-281.527C223.165,-274.955 313.134,-265.394 377.764,-258.526"/>
<polygon fill="black" stroke="black" points="378.337,-261.985 387.911,-257.448 377.597,-255.025 378.337,-261.985"/>
</g>
<!-- /nix/store/dvwxmfrlm8ffcy3yp0q6p96cy9h30h1w&#45;stdenv.drv -->
<g id="node4" class="node"><title>/nix/store/dvwxmfrlm8ffcy3yp0q6p96cy9h30h1w&#45;stdenv.drv</title>
<polygon fill="#ffffff" stroke="black" points="136,-253 44,-253 44,-217 136,-217 136,-253"/>
<text text-anchor="middle" x="90" y="-231.3" font-family="Times,serif" font-size="14.00">stdenv.drv</text>
</g>
<!-- /nix/store/dvwxmfrlm8ffcy3yp0q6p96cy9h30h1w&#45;stdenv.drv&#45;&gt;/nix/store/xygg3wqnxdi8v3xhk3ks57kdsxlri2l8&#45;python&#45;2.7.9.drv -->
<g id="edge4" class="edge"><title>/nix/store/dvwxmfrlm8ffcy3yp0q6p96cy9h30h1w&#45;stdenv.drv&#45;&gt;/nix/store/xygg3wqnxdi8v3xhk3ks57kdsxlri2l8&#45;python&#45;2.7.9.drv</title>
<path fill="none" stroke="burlywood" d="M136.015,-224.215C157.058,-219.174 182.703,-213.029 206.646,-207.293"/>
<polygon fill="burlywood" stroke="burlywood" points="207.519,-210.683 216.429,-204.949 205.888,-203.876 207.519,-210.683"/>
</g>
<!-- view&#45;dvwxmfrlm8ffcy3yp0q6p96cy9h30h1w&#45;stdenv.drv -->
<g id="node13" class="node"><title>view&#45;dvwxmfrlm8ffcy3yp0q6p96cy9h30h1w&#45;stdenv.drv</title>
<polygon fill="#ffffff" stroke="black" points="491.5,-214 426.5,-214 426.5,-178 491.5,-178 491.5,-214"/>
<text text-anchor="middle" x="459" y="-192.3" font-family="Times,serif" font-size="14.00">stdenv</text>
</g>
<!-- /nix/store/dvwxmfrlm8ffcy3yp0q6p96cy9h30h1w&#45;stdenv.drv&#45;&gt;view&#45;dvwxmfrlm8ffcy3yp0q6p96cy9h30h1w&#45;stdenv.drv -->
<g id="edge12" class="edge"><title>/nix/store/dvwxmfrlm8ffcy3yp0q6p96cy9h30h1w&#45;stdenv.drv&#45;&gt;view&#45;dvwxmfrlm8ffcy3yp0q6p96cy9h30h1w&#45;stdenv.drv</title>
<path fill="none" stroke="black" d="M136.423,-233.262C188.618,-230.902 276.764,-225.804 352,-216 373.251,-213.231 396.684,-208.941 416.101,-205.043"/>
<polygon fill="black" stroke="black" points="417.049,-208.422 426.146,-202.991 415.647,-201.564 417.049,-208.422"/>
</g>
<!-- /nix/store/gxyihp1gmhxd70b5fccgzw32gbx5zw1r&#45;bash&#45;4.3&#45;p30.drv -->
<g id="node5" class="node"><title>/nix/store/gxyihp1gmhxd70b5fccgzw32gbx5zw1r&#45;bash&#45;4.3&#45;p30.drv</title>
<polygon fill="#ffffff" stroke="black" points="158.5,-145 21.5,-145 21.5,-109 158.5,-109 158.5,-145"/>
<text text-anchor="middle" x="90" y="-123.3" font-family="Times,serif" font-size="14.00">bash&#45;4.3&#45;p30.drv</text>
</g>
<!-- /nix/store/gxyihp1gmhxd70b5fccgzw32gbx5zw1r&#45;bash&#45;4.3&#45;p30.drv&#45;&gt;/nix/store/xygg3wqnxdi8v3xhk3ks57kdsxlri2l8&#45;python&#45;2.7.9.drv -->
<g id="edge5" class="edge"><title>/nix/store/gxyihp1gmhxd70b5fccgzw32gbx5zw1r&#45;bash&#45;4.3&#45;p30.drv&#45;&gt;/nix/store/xygg3wqnxdi8v3xhk3ks57kdsxlri2l8&#45;python&#45;2.7.9.drv</title>
<path fill="none" stroke="red" d="M151.406,-145.031C160.988,-147.976 170.777,-151.035 180,-154 193.383,-158.303 207.691,-163.062 221.255,-167.649"/>
<polygon fill="red" stroke="red" points="220.382,-171.049 230.976,-170.949 222.632,-164.42 220.382,-171.049"/>
</g>
<!-- view&#45;gxyihp1gmhxd70b5fccgzw32gbx5zw1r&#45;bash&#45;4.3&#45;p30.drv -->
<g id="node14" class="node"><title>view&#45;gxyihp1gmhxd70b5fccgzw32gbx5zw1r&#45;bash&#45;4.3&#45;p30.drv</title>
<polygon fill="#ffffff" stroke="black" points="513.5,-160 404.5,-160 404.5,-124 513.5,-124 513.5,-160"/>
<text text-anchor="middle" x="459" y="-138.3" font-family="Times,serif" font-size="14.00">bash&#45;4.3&#45;p30</text>
</g>
<!-- /nix/store/gxyihp1gmhxd70b5fccgzw32gbx5zw1r&#45;bash&#45;4.3&#45;p30.drv&#45;&gt;view&#45;gxyihp1gmhxd70b5fccgzw32gbx5zw1r&#45;bash&#45;4.3&#45;p30.drv -->
<g id="edge13" class="edge"><title>/nix/store/gxyihp1gmhxd70b5fccgzw32gbx5zw1r&#45;bash&#45;4.3&#45;p30.drv&#45;&gt;view&#45;gxyihp1gmhxd70b5fccgzw32gbx5zw1r&#45;bash&#45;4.3&#45;p30.drv</title>
<path fill="none" stroke="black" d="M158.741,-129.769C225.977,-132.517 328.259,-136.697 394.115,-139.389"/>
<polygon fill="black" stroke="black" points="394.226,-142.896 404.36,-139.808 394.512,-135.902 394.226,-142.896"/>
</g>
<!-- /nix/store/jwimr2d5xlbhicl42k9qvyqggcacqk66&#45;zlib&#45;1.2.8.drv -->
<g id="node6" class="node"><title>/nix/store/jwimr2d5xlbhicl42k9qvyqggcacqk66&#45;zlib&#45;1.2.8.drv</title>
<polygon fill="#ffffff" stroke="black" points="145.5,-91 34.5,-91 34.5,-55 145.5,-55 145.5,-91"/>
<text text-anchor="middle" x="90" y="-69.3" font-family="Times,serif" font-size="14.00">zlib&#45;1.2.8.drv</text>
</g>
<!-- /nix/store/jwimr2d5xlbhicl42k9qvyqggcacqk66&#45;zlib&#45;1.2.8.drv&#45;&gt;/nix/store/xygg3wqnxdi8v3xhk3ks57kdsxlri2l8&#45;python&#45;2.7.9.drv -->
<g id="edge6" class="edge"><title>/nix/store/jwimr2d5xlbhicl42k9qvyqggcacqk66&#45;zlib&#45;1.2.8.drv&#45;&gt;/nix/store/xygg3wqnxdi8v3xhk3ks57kdsxlri2l8&#45;python&#45;2.7.9.drv</title>
<path fill="none" stroke="green" d="M145.652,-85.6416C157.362,-89.419 169.393,-94.1561 180,-100 210.468,-116.787 239.951,-143.693 259.509,-163.532"/>
<polygon fill="green" stroke="green" points="257.03,-166.003 266.5,-170.754 262.059,-161.134 257.03,-166.003"/>
</g>
<!-- view&#45;jwimr2d5xlbhicl42k9qvyqggcacqk66&#45;zlib&#45;1.2.8.drv -->
<g id="node15" class="node"><title>view&#45;jwimr2d5xlbhicl42k9qvyqggcacqk66&#45;zlib&#45;1.2.8.drv</title>
<polygon fill="#ffffff" stroke="black" points="500.5,-106 417.5,-106 417.5,-70 500.5,-70 500.5,-106"/>
<text text-anchor="middle" x="459" y="-84.3" font-family="Times,serif" font-size="14.00">zlib&#45;1.2.8</text>
</g>
<!-- /nix/store/jwimr2d5xlbhicl42k9qvyqggcacqk66&#45;zlib&#45;1.2.8.drv&#45;&gt;view&#45;jwimr2d5xlbhicl42k9qvyqggcacqk66&#45;zlib&#45;1.2.8.drv -->
<g id="edge14" class="edge"><title>/nix/store/jwimr2d5xlbhicl42k9qvyqggcacqk66&#45;zlib&#45;1.2.8.drv&#45;&gt;view&#45;jwimr2d5xlbhicl42k9qvyqggcacqk66&#45;zlib&#45;1.2.8.drv</title>
<path fill="none" stroke="black" d="M145.547,-75.2295C216.2,-78.1172 338.426,-83.1128 407.198,-85.9236"/>
<polygon fill="black" stroke="black" points="407.218,-89.4273 417.353,-86.3387 407.504,-82.4331 407.218,-89.4273"/>
</g>
<!-- /nix/store/lv2cxjhwxfs2srl1gl1bfx3wcyyqxgnh&#45;Python&#45;2.7.9.tar.xz.drv -->
<g id="node7" class="node"><title>/nix/store/lv2cxjhwxfs2srl1gl1bfx3wcyyqxgnh&#45;Python&#45;2.7.9.tar.xz.drv</title>
<polygon fill="#ffffff" stroke="black" points="180,-199 0,-199 0,-163 180,-163 180,-199"/>
<text text-anchor="middle" x="90" y="-177.3" font-family="Times,serif" font-size="14.00">Python&#45;2.7.9.tar.xz.drv</text>
</g>
<!-- /nix/store/lv2cxjhwxfs2srl1gl1bfx3wcyyqxgnh&#45;Python&#45;2.7.9.tar.xz.drv&#45;&gt;/nix/store/xygg3wqnxdi8v3xhk3ks57kdsxlri2l8&#45;python&#45;2.7.9.drv -->
<g id="edge7" class="edge"><title>/nix/store/lv2cxjhwxfs2srl1gl1bfx3wcyyqxgnh&#45;Python&#45;2.7.9.tar.xz.drv&#45;&gt;/nix/store/xygg3wqnxdi8v3xhk3ks57kdsxlri2l8&#45;python&#45;2.7.9.drv</title>
<path fill="none" stroke="blue" d="M180.255,-184.719C188.888,-185.079 197.594,-185.441 206.092,-185.796"/>
<polygon fill="blue" stroke="blue" points="206.199,-189.303 216.336,-186.222 206.49,-182.309 206.199,-189.303"/>
</g>
<!-- /nix/store/y3yhyfzcwxdsczh0nics4dfgbqs8p21s&#45;openssl&#45;1.0.1k.drv -->
<g id="node8" class="node"><title>/nix/store/y3yhyfzcwxdsczh0nics4dfgbqs8p21s&#45;openssl&#45;1.0.1k.drv</title>
<polygon fill="#ffffff" stroke="black" points="164.5,-37 15.5,-37 15.5,-1 164.5,-1 164.5,-37"/>
<text text-anchor="middle" x="90" y="-15.3" font-family="Times,serif" font-size="14.00">openssl&#45;1.0.1k.drv</text>
</g>
<!-- /nix/store/y3yhyfzcwxdsczh0nics4dfgbqs8p21s&#45;openssl&#45;1.0.1k.drv&#45;&gt;/nix/store/xygg3wqnxdi8v3xhk3ks57kdsxlri2l8&#45;python&#45;2.7.9.drv -->
<g id="edge8" class="edge"><title>/nix/store/y3yhyfzcwxdsczh0nics4dfgbqs8p21s&#45;openssl&#45;1.0.1k.drv&#45;&gt;/nix/store/xygg3wqnxdi8v3xhk3ks57kdsxlri2l8&#45;python&#45;2.7.9.drv</title>
<path fill="none" stroke="burlywood" d="M164.737,-37.0594C170.112,-39.6564 175.271,-42.6199 180,-46 222.183,-76.151 253.654,-129.049 270.11,-161.365"/>
<polygon fill="burlywood" stroke="burlywood" points="267.153,-163.28 274.73,-170.685 273.425,-160.171 267.153,-163.28"/>
</g>
<!-- view&#45;y3yhyfzcwxdsczh0nics4dfgbqs8p21s&#45;openssl&#45;1.0.1k.drv -->
<g id="node16" class="node"><title>view&#45;y3yhyfzcwxdsczh0nics4dfgbqs8p21s&#45;openssl&#45;1.0.1k.drv</title>
<polygon fill="#ffffff" stroke="black" points="519,-52 399,-52 399,-16 519,-16 519,-52"/>
<text text-anchor="middle" x="459" y="-30.3" font-family="Times,serif" font-size="14.00">openssl&#45;1.0.1k</text>
</g>
<!-- /nix/store/y3yhyfzcwxdsczh0nics4dfgbqs8p21s&#45;openssl&#45;1.0.1k.drv&#45;&gt;view&#45;y3yhyfzcwxdsczh0nics4dfgbqs8p21s&#45;openssl&#45;1.0.1k.drv -->
<g id="edge15" class="edge"><title>/nix/store/y3yhyfzcwxdsczh0nics4dfgbqs8p21s&#45;openssl&#45;1.0.1k.drv&#45;&gt;view&#45;y3yhyfzcwxdsczh0nics4dfgbqs8p21s&#45;openssl&#45;1.0.1k.drv</title>
<path fill="none" stroke="black" d="M164.826,-22.0174C230.06,-24.6837 324.502,-28.5437 388.425,-31.1563"/>
<polygon fill="black" stroke="black" points="388.672,-34.6693 398.807,-31.5807 388.958,-27.6751 388.672,-34.6693"/>
</g>
<!-- /nix/store/xygg3wqnxdi8v3xhk3ks57kdsxlri2l8&#45;python&#45;2.7.9.drv&#45;&gt;view&#45;13gnii6g05c1p5ixf22la1fqwd9nbjv5&#45;bzip2&#45;1.0.6.drv -->
<!-- /nix/store/xygg3wqnxdi8v3xhk3ks57kdsxlri2l8&#45;python&#45;2.7.9.drv&#45;&gt;view&#45;3m5zq1f38mdk51ks25hz8pnl99hq6j5k&#45;glibc&#45;2.20.drv -->
<!-- /nix/store/xygg3wqnxdi8v3xhk3ks57kdsxlri2l8&#45;python&#45;2.7.9.drv&#45;&gt;view&#45;9krlzvny65gdc8s7kpb6lkx8cd02c25b&#45;default&#45;builder.sh -->
<!-- /nix/store/xygg3wqnxdi8v3xhk3ks57kdsxlri2l8&#45;python&#45;2.7.9.drv&#45;&gt;view&#45;dvwxmfrlm8ffcy3yp0q6p96cy9h30h1w&#45;stdenv.drv -->
<!-- /nix/store/xygg3wqnxdi8v3xhk3ks57kdsxlri2l8&#45;python&#45;2.7.9.drv&#45;&gt;view&#45;gxyihp1gmhxd70b5fccgzw32gbx5zw1r&#45;bash&#45;4.3&#45;p30.drv -->
<!-- /nix/store/xygg3wqnxdi8v3xhk3ks57kdsxlri2l8&#45;python&#45;2.7.9.drv&#45;&gt;view&#45;jwimr2d5xlbhicl42k9qvyqggcacqk66&#45;zlib&#45;1.2.8.drv -->
<!-- /nix/store/xygg3wqnxdi8v3xhk3ks57kdsxlri2l8&#45;python&#45;2.7.9.drv&#45;&gt;view&#45;y3yhyfzcwxdsczh0nics4dfgbqs8p21s&#45;openssl&#45;1.0.1k.drv -->
</g>
</svg>
