<?xml version="1.0" encoding="UTF-8" standalone="no"?>
<!DOCTYPE svg PUBLIC "-//W3C//DTD SVG 1.1//EN"
 "http://www.w3.org/Graphics/SVG/1.1/DTD/svg11.dtd">
<!-- Generated by graphviz version 2.36.0 (20140111.2315)
 -->
<!-- Title: G Pages: 1 -->
<svg width="180pt" height="692pt"
 viewBox="0.00 0.00 180.00 692.00" xmlns="http://www.w3.org/2000/svg" xmlns:xlink="http://www.w3.org/1999/xlink">
<g id="graph0" class="graph" transform="scale(1 1) rotate(0) translate(4 688)">
<title>G</title>
<!-- /nix/store/l8rhnzq9yxqhv3il4kmzqhkx8q06jzgv&#45;python&#45;2.7.9 -->
<g id="node1" class="node"><title>/nix/store/l8rhnzq9yxqhv3il4kmzqhkx8q06jzgv&#45;python&#45;2.7.9</title>
<polygon fill="#00ff00" stroke="black" points="139.5,-36 32.5,-36 32.5,-0 139.5,-0 139.5,-36"/>
<text text-anchor="middle" x="86" y="-14.3" font-family="Times,serif" font-size="14.00">python&#45;2.7.9</text>
</g>
<!-- /nix/store/8nxzd6jkgcihyx26m246ycpnpivicpak&#45;openssl&#45;1.0.1k -->
<g id="node2" class="node"><title>/nix/store/8nxzd6jkgcihyx26m246ycpnpivicpak&#45;openssl&#45;1.0.1k</title>
<polygon fill="#ffffff" stroke="black" points="146,-90 26,-90 26,-54 146,-54 146,-90"/>
<text text-anchor="middle" x="86" y="-68.3" font-family="Times,serif" font-size="14.00">openssl&#45;1.0.1k</text>
</g>
<!-- /nix/store/482l1wbyrbqzy8pm0mh9psvk7f7x2qnf&#45;perl&#45;5.20.1 -->
<g id="node3" class="node"><title>/nix/store/482l1wbyrbqzy8pm0mh9psvk7f7x2qnf&#45;perl&#45;5.20.1</title>
<polygon fill="#ffffff" stroke="black" points="133.5,-144 38.5,-144 38.5,-108 133.5,-108 133.5,-144"/>
<text text-anchor="middle" x="86" y="-122.3" font-family="Times,serif" font-size="14.00">perl&#45;5.20.1</text>
</g>
<!-- /nix/store/96vfgc1gfwslmg3hhfzkxsvqqc61mh89&#45;bzip2&#45;1.0.6 -->
<g id="node4" class="node"><title>/nix/store/96vfgc1gfwslmg3hhfzkxsvqqc61mh89&#45;bzip2&#45;1.0.6</title>
<polygon fill="#ffffff" stroke="black" points="134,-198 38,-198 38,-162 134,-162 134,-198"/>
<text text-anchor="middle" x="86" y="-176.3" font-family="Times,serif" font-size="14.00">bzip2&#45;1.0.6</text>
</g>
<!-- /nix/store/a2p5i9hb5hpqssh7vp402r6n9slfayqx&#45;zlib&#45;1.2.8 -->
<g id="node5" class="node"><title>/nix/store/a2p5i9hb5hpqssh7vp402r6n9slfayqx&#45;zlib&#45;1.2.8</title>
<polygon fill="#ffffff" stroke="black" points="127.5,-252 44.5,-252 44.5,-216 127.5,-216 127.5,-252"/>
<text text-anchor="middle" x="86" y="-230.3" font-family="Times,serif" font-size="14.00">zlib&#45;1.2.8</text>
</g>
<!-- /nix/store/cxrc12hkmvrjlq747cm08av6jl41nzi1&#45;bash&#45;4.3&#45;p30 -->
<g id="node6" class="node"><title>/nix/store/cxrc12hkmvrjlq747cm08av6jl41nzi1&#45;bash&#45;4.3&#45;p30</title>
<polygon fill="#ffffff" stroke="black" points="140.5,-306 31.5,-306 31.5,-270 140.5,-270 140.5,-306"/>
<text text-anchor="middle" x="86" y="-284.3" font-family="Times,serif" font-size="14.00">bash&#45;4.3&#45;p30</text>
</g>
<!-- /nix/store/h4ssyq8lac0ywmn8j0lsichvj9fvcfyd&#45;coreutils&#45;8.23 -->
<g id="node7" class="node"><title>/nix/store/h4ssyq8lac0ywmn8j0lsichvj9fvcfyd&#45;coreutils&#45;8.23</title>
<polygon fill="#ffffff" stroke="black" points="144,-360 28,-360 28,-324 144,-324 144,-360"/>
<text text-anchor="middle" x="86" y="-338.3" font-family="Times,serif" font-size="14.00">coreutils&#45;8.23</text>
</g>
<!-- /nix/store/54whwk19x8cgak0pwnnzzq282hwaf8f3&#45;acl&#45;2.2.52 -->
<g id="node8" class="node"><title>/nix/store/54whwk19x8cgak0pwnnzzq282hwaf8f3&#45;acl&#45;2.2.52</title>
<polygon fill="#ffffff" stroke="black" points="129.5,-414 42.5,-414 42.5,-378 129.5,-378 129.5,-414"/>
<text text-anchor="middle" x="86" y="-392.3" font-family="Times,serif" font-size="14.00">acl&#45;2.2.52</text>
</g>
<!-- /nix/store/f9i3xzbkx0frdqwqvy8qpk6gcclzf02f&#45;attr&#45;2.4.47 -->
<g id="node9" class="node"><title>/nix/store/f9i3xzbkx0frdqwqvy8qpk6gcclzf02f&#45;attr&#45;2.4.47</title>
<polygon fill="#ffffff" stroke="black" points="132.5,-468 39.5,-468 39.5,-432 132.5,-432 132.5,-468"/>
<text text-anchor="middle" x="86" y="-446.3" font-family="Times,serif" font-size="14.00">attr&#45;2.4.47</text>
</g>
<!-- /nix/store/nrxyygy0wqski1klq0305d3h523k41ps&#45;glibc&#45;2.20 -->
<g id="node10" class="node"><title>/nix/store/nrxyygy0wqski1klq0305d3h523k41ps&#45;glibc&#45;2.20</title>
<polygon fill="#ffffff" stroke="black" points="130,-522 42,-522 42,-486 130,-486 130,-522"/>
<text text-anchor="middle" x="86" y="-500.3" font-family="Times,serif" font-size="14.00">glibc&#45;2.20</text>
</g>
<!-- /nix/store/jvlrfyjlm4m0jykiw33dk5kjyzmgysiw&#45;linux&#45;headers&#45;3.12.32 -->
<g id="node11" class="node"><title>/nix/store/jvlrfyjlm4m0jykiw33dk5kjyzmgysiw&#45;linux&#45;headers&#45;3.12.32</title>
<polygon fill="#ffffff" stroke="black" points="172,-576 0,-576 0,-540 172,-540 172,-576"/>
<text text-anchor="middle" x="86" y="-554.3" font-family="Times,serif" font-size="14.00">linux&#45;headers&#45;3.12.32</text>
</g>
<!-- /nix/store/p9rmkj5s68cjhjnb8msj477wcm5157rx&#45;gcc&#45;4.8.4 -->
<g id="node12" class="node"><title>/nix/store/p9rmkj5s68cjhjnb8msj477wcm5157rx&#45;gcc&#45;4.8.4</title>
<polygon fill="#ffffff" stroke="black" points="127.5,-630 44.5,-630 44.5,-594 127.5,-594 127.5,-630"/>
<text text-anchor="middle" x="86" y="-608.3" font-family="Times,serif" font-size="14.00">gcc&#45;4.8.4</text>
</g>
<!-- not&#45;managed&#45;1.0.0 -->
</g>
</svg>
